<svg xmlns="http://www.w3.org/2000/svg" xmlns:xlink="http://www.w3.org/1999/xlink" width="378" zoomAndPan="magnify" viewBox="0 0 282.96 283.499989" height="378" preserveAspectRatio="xMidYMid meet" version="1.0"><defs><g/><clipPath id="a9110beb7b"><path d="M 0.230469 0 L 282.691406 0 L 282.691406 283 L 0.230469 283 Z M 0.230469 0 " clip-rule="nonzero"/></clipPath></defs><g clip-path="url(#a9110beb7b)"><path fill="#ffffff" d="M 0.230469 0 L 283.230469 0 L 283.230469 283 L 0.230469 283 Z M 0.230469 0 " fill-opacity="1" fill-rule="nonzero"/><path fill="#ffffff" d="M 0.230469 0 L 283.230469 0 L 283.230469 283 L 0.230469 283 Z M 0.230469 0 " fill-opacity="1" fill-rule="nonzero"/></g><g fill="#000000" fill-opacity="1"><g transform="translate(68.04962, 86.403419)"><g><path d="M 17.703125 -19.625 C 17.066406 -17.144531 16.050781 -14.847656 14.65625 -12.734375 C 13.257812 -10.628906 11.546875 -8.816406 9.515625 -7.296875 C 8.785156 -6.765625 8.078125 -6.21875 7.390625 -5.65625 C 6.703125 -5.09375 5.960938 -4.578125 5.171875 -4.109375 C 4.722656 -3.847656 4.242188 -3.613281 3.734375 -3.40625 C 3.234375 -3.207031 2.734375 -3.144531 2.234375 -3.21875 C 1.785156 -3.238281 1.390625 -3.367188 1.046875 -3.609375 C 0.703125 -3.847656 0.375 -4.113281 0.0625 -4.40625 C -0.851562 -5.269531 -1.71875 -6.148438 -2.53125 -7.046875 C -3.34375 -7.953125 -4.15625 -8.890625 -4.96875 -9.859375 C -5.070312 -9.972656 -5.304688 -10.253906 -5.671875 -10.703125 C -6.046875 -11.160156 -6.304688 -11.441406 -6.453125 -11.546875 C -8.785156 -13.859375 -11.160156 -16.097656 -13.578125 -18.265625 C -16.003906 -20.429688 -18.375 -22.6875 -20.6875 -25.03125 C -21.5625 -25.914062 -22.382812 -26.882812 -23.15625 -27.9375 C -23.9375 -28.988281 -24.441406 -30.128906 -24.671875 -31.359375 C -24.859375 -32.367188 -24.796875 -33.378906 -24.484375 -34.390625 C -24.171875 -35.410156 -23.765625 -36.367188 -23.265625 -37.265625 C -22.453125 -38.578125 -21.523438 -39.78125 -20.484375 -40.875 C -19.441406 -41.976562 -18.394531 -43.054688 -17.34375 -44.109375 C -16.707031 -44.742188 -16.039062 -45.347656 -15.34375 -45.921875 C -14.644531 -46.503906 -13.898438 -47.03125 -13.109375 -47.5 C -11.859375 -48.175781 -10.503906 -48.679688 -9.046875 -49.015625 C -7.597656 -49.359375 -6.171875 -49.492188 -4.765625 -49.421875 C -4.597656 -49.421875 -4.242188 -49.40625 -3.703125 -49.375 C -3.160156 -49.34375 -2.816406 -49.304688 -2.671875 -49.265625 C -1.242188 -49.003906 0.132812 -48.570312 1.46875 -47.96875 C 2.8125 -47.375 4.066406 -46.679688 5.234375 -45.890625 C 7.679688 -44.304688 9.863281 -42.34375 11.78125 -40 C 13.695312 -37.664062 15.25 -35.179688 16.4375 -32.546875 C 16.945312 -31.347656 17.367188 -30.128906 17.703125 -28.890625 C 18.046875 -27.648438 18.25 -26.359375 18.3125 -25.015625 C 18.363281 -23.117188 18.160156 -21.320312 17.703125 -19.625 Z M 3.6875 -18.515625 C 3.945312 -18.597656 4.234375 -18.835938 4.546875 -19.234375 C 4.867188 -19.640625 5.09375 -19.945312 5.21875 -20.15625 C 5.382812 -20.445312 5.523438 -20.722656 5.640625 -20.984375 C 5.765625 -21.253906 5.878906 -21.546875 5.984375 -21.859375 C 6.097656 -22.296875 6.144531 -22.742188 6.125 -23.203125 C 6.101562 -23.660156 6.03125 -24.125 5.90625 -24.59375 C 5.726562 -25.414062 5.414062 -26.191406 4.96875 -26.921875 C 4.53125 -27.660156 4.046875 -28.367188 3.515625 -29.046875 C 2.816406 -30.015625 2.054688 -30.921875 1.234375 -31.765625 C 0.421875 -32.609375 -0.425781 -33.421875 -1.3125 -34.203125 C -2.613281 -35.304688 -3.988281 -36.054688 -5.4375 -36.453125 C -5.90625 -36.617188 -6.378906 -36.757812 -6.859375 -36.875 C -7.335938 -36.988281 -7.816406 -37.007812 -8.296875 -36.9375 C -8.660156 -36.863281 -9.007812 -36.734375 -9.34375 -36.546875 C -9.6875 -36.359375 -10 -36.132812 -10.28125 -35.875 C -10.476562 -35.632812 -10.722656 -35.3125 -11.015625 -34.90625 C -11.304688 -34.507812 -11.40625 -34.140625 -11.3125 -33.796875 C -11.269531 -33.566406 -11.09375 -33.257812 -10.78125 -32.875 C -10.476562 -32.488281 -10.144531 -32.101562 -9.78125 -31.71875 C -9.414062 -31.332031 -9.050781 -30.972656 -8.6875 -30.640625 C -8.332031 -30.304688 -8.078125 -30.054688 -7.921875 -29.890625 C -7.703125 -29.660156 -7.320312 -29.257812 -6.78125 -28.6875 C -6.25 -28.113281 -5.632812 -27.46875 -4.9375 -26.75 C -4.238281 -26.039062 -3.503906 -25.289062 -2.734375 -24.5 C -1.972656 -23.707031 -1.25 -22.945312 -0.5625 -22.21875 C 0.113281 -21.488281 0.710938 -20.832031 1.234375 -20.25 C 1.753906 -19.664062 2.117188 -19.257812 2.328125 -19.03125 C 2.472656 -18.945312 2.703125 -18.832031 3.015625 -18.6875 C 3.328125 -18.539062 3.550781 -18.484375 3.6875 -18.515625 Z M 3.6875 -18.515625 "/></g></g></g><g fill="#000000" fill-opacity="1"><g transform="translate(90.231829, 63.977985)"><g><path d="M 21.5625 -7.75 C 19.882812 -6.789062 18.070312 -6.070312 16.125 -5.59375 C 14.175781 -5.113281 12.222656 -4.914062 10.265625 -5 C 8.859375 -5.125 7.453125 -5.414062 6.046875 -5.875 C 4.640625 -6.332031 3.351562 -6.953125 2.1875 -7.734375 C 0.21875 -9.085938 -1.488281 -10.734375 -2.9375 -12.671875 C -4.382812 -14.609375 -5.609375 -16.664062 -6.609375 -18.84375 C -7.535156 -20.96875 -8.242188 -23.175781 -8.734375 -25.46875 C -9.234375 -27.769531 -9.441406 -30.085938 -9.359375 -32.421875 C -9.285156 -33.972656 -9.003906 -35.507812 -8.515625 -37.03125 C -8.023438 -38.5625 -7.320312 -39.960938 -6.40625 -41.234375 C -5.300781 -42.847656 -3.945312 -44.253906 -2.34375 -45.453125 C -0.738281 -46.660156 0.960938 -47.601562 2.765625 -48.28125 C 5.347656 -49.226562 7.941406 -49.671875 10.546875 -49.609375 C 11.671875 -49.578125 12.773438 -49.425781 13.859375 -49.15625 C 14.953125 -48.894531 16.003906 -48.519531 17.015625 -48.03125 C 17.765625 -47.632812 18.453125 -47.148438 19.078125 -46.578125 C 19.703125 -46.015625 20.3125 -45.425781 20.90625 -44.8125 C 22.644531 -43.007812 24.082031 -40.953125 25.21875 -38.640625 C 26.351562 -36.328125 27.28125 -33.957031 28 -31.53125 C 28.59375 -29.476562 29.066406 -27.398438 29.421875 -25.296875 C 29.773438 -23.191406 29.816406 -21.085938 29.546875 -18.984375 C 29.410156 -17.953125 29.179688 -16.953125 28.859375 -15.984375 C 28.546875 -15.023438 28.125 -14.117188 27.59375 -13.265625 C 26.851562 -12.097656 25.960938 -11.054688 24.921875 -10.140625 C 23.878906 -9.222656 22.757812 -8.425781 21.5625 -7.75 Z M 10.875 -20.65625 C 11.570312 -20.101562 12.398438 -19.734375 13.359375 -19.546875 C 14.328125 -19.359375 15.242188 -19.425781 16.109375 -19.75 C 16.753906 -20.019531 17.257812 -20.421875 17.625 -20.953125 C 18.15625 -21.640625 18.492188 -22.414062 18.640625 -23.28125 C 18.785156 -24.15625 18.851562 -25.007812 18.84375 -25.84375 C 18.832031 -27.800781 18.515625 -29.742188 17.890625 -31.671875 C 17.273438 -33.597656 16.378906 -35.359375 15.203125 -36.953125 C 14.722656 -37.597656 14.144531 -38.210938 13.46875 -38.796875 C 12.800781 -39.390625 12.050781 -39.8125 11.21875 -40.0625 C 10.082031 -40.476562 8.882812 -40.488281 7.625 -40.09375 C 6.363281 -39.695312 5.472656 -38.941406 4.953125 -37.828125 C 4.722656 -37.273438 4.570312 -36.695312 4.5 -36.09375 C 4.4375 -35.5 4.421875 -34.90625 4.453125 -34.3125 C 4.554688 -33.25 4.75 -32.222656 5.03125 -31.234375 C 5.320312 -30.242188 5.671875 -29.265625 6.078125 -28.296875 C 6.390625 -27.453125 6.75 -26.632812 7.15625 -25.84375 C 7.570312 -25.0625 8.03125 -24.285156 8.53125 -23.515625 C 8.875 -22.972656 9.226562 -22.460938 9.59375 -21.984375 C 9.96875 -21.503906 10.394531 -21.0625 10.875 -20.65625 Z M 10.875 -20.65625 "/></g></g></g><g fill="#000000" fill-opacity="1"><g transform="translate(120.838673, 49.679814)"><g><path d="M 10.796875 1.359375 C 10.242188 1.441406 9.554688 1.5 8.734375 1.53125 C 7.910156 1.5625 7.082031 1.546875 6.25 1.484375 C 5.425781 1.421875 4.648438 1.273438 3.921875 1.046875 C 3.203125 0.828125 2.660156 0.507812 2.296875 0.09375 C 1.816406 -0.5 1.570312 -1.25 1.5625 -2.15625 C 1.550781 -2.738281 1.597656 -3.320312 1.703125 -3.90625 C 1.804688 -4.5 1.894531 -5.085938 1.96875 -5.671875 C 2.582031 -10.859375 2.921875 -16.039062 2.984375 -21.21875 C 3.046875 -26.40625 2.9375 -31.601562 2.65625 -36.8125 C 2.644531 -37.238281 2.597656 -37.644531 2.515625 -38.03125 C 2.429688 -38.425781 2.363281 -38.84375 2.3125 -39.28125 C 2.269531 -39.550781 2.265625 -39.832031 2.296875 -40.125 C 2.335938 -40.414062 2.457031 -40.679688 2.65625 -40.921875 C 2.84375 -41.242188 3.097656 -41.515625 3.421875 -41.734375 C 3.753906 -41.960938 4.09375 -42.15625 4.4375 -42.3125 C 5.226562 -42.632812 6.050781 -42.847656 6.90625 -42.953125 C 7.757812 -43.066406 8.625 -43.113281 9.5 -43.09375 C 10.164062 -43.101562 10.820312 -43.070312 11.46875 -43 C 12.113281 -42.9375 12.734375 -42.789062 13.328125 -42.5625 C 13.679688 -42.375 14.023438 -42.175781 14.359375 -41.96875 C 14.703125 -41.757812 14.992188 -41.5 15.234375 -41.1875 C 15.472656 -40.875 15.789062 -40.316406 16.1875 -39.515625 C 16.59375 -38.722656 17 -37.867188 17.40625 -36.953125 C 17.8125 -36.035156 18.1875 -35.160156 18.53125 -34.328125 C 18.882812 -33.492188 19.140625 -32.898438 19.296875 -32.546875 C 19.992188 -30.785156 20.660156 -29.019531 21.296875 -27.25 C 21.929688 -25.476562 22.578125 -23.695312 23.234375 -21.90625 C 23.367188 -21.59375 23.554688 -21.09375 23.796875 -20.40625 C 24.046875 -19.726562 24.320312 -19.007812 24.625 -18.25 C 24.925781 -17.488281 25.226562 -16.785156 25.53125 -16.140625 C 25.84375 -15.503906 26.113281 -15.066406 26.34375 -14.828125 C 26.664062 -14.515625 26.910156 -14.4375 27.078125 -14.59375 C 27.253906 -14.757812 27.398438 -15.054688 27.515625 -15.484375 C 27.628906 -15.921875 27.695312 -16.410156 27.71875 -16.953125 C 27.75 -17.503906 27.765625 -18 27.765625 -18.4375 C 27.742188 -19.414062 27.695312 -20.394531 27.625 -21.375 C 27.550781 -22.351562 27.472656 -23.332031 27.390625 -24.3125 C 27.296875 -25.09375 27.203125 -25.863281 27.109375 -26.625 C 27.015625 -27.394531 26.863281 -28.171875 26.65625 -28.953125 C 26.53125 -29.453125 26.332031 -30.234375 26.0625 -31.296875 C 25.789062 -32.359375 25.523438 -33.484375 25.265625 -34.671875 C 25.015625 -35.859375 24.8125 -36.976562 24.65625 -38.03125 C 24.5 -39.09375 24.476562 -39.882812 24.59375 -40.40625 C 24.664062 -40.832031 24.859375 -41.203125 25.171875 -41.515625 C 25.484375 -41.835938 25.832031 -42.097656 26.21875 -42.296875 C 26.757812 -42.578125 27.320312 -42.800781 27.90625 -42.96875 C 28.5 -43.132812 29.109375 -43.285156 29.734375 -43.421875 C 30.503906 -43.546875 31.289062 -43.648438 32.09375 -43.734375 C 32.90625 -43.828125 33.703125 -43.847656 34.484375 -43.796875 C 34.796875 -43.753906 35.109375 -43.6875 35.421875 -43.59375 C 35.742188 -43.5 36.023438 -43.351562 36.265625 -43.15625 C 36.648438 -42.851562 36.957031 -42.488281 37.1875 -42.0625 C 37.414062 -41.632812 37.628906 -41.207031 37.828125 -40.78125 C 38.679688 -38.90625 39.269531 -36.957031 39.59375 -34.9375 C 39.914062 -32.925781 40.113281 -30.921875 40.1875 -28.921875 C 40.300781 -26.335938 40.242188 -23.769531 40.015625 -21.21875 C 39.785156 -18.664062 39.4375 -16.132812 38.96875 -13.625 C 38.675781 -12.164062 38.363281 -10.726562 38.03125 -9.3125 C 37.695312 -7.894531 37.265625 -6.492188 36.734375 -5.109375 C 36.398438 -4.203125 35.992188 -3.320312 35.515625 -2.46875 C 35.035156 -1.613281 34.429688 -0.910156 33.703125 -0.359375 C 33.242188 0.046875 32.707031 0.335938 32.09375 0.515625 C 31.488281 0.703125 30.890625 0.835938 30.296875 0.921875 C 28.816406 1.148438 27.367188 1.117188 25.953125 0.828125 C 25.328125 0.679688 24.707031 0.472656 24.09375 0.203125 C 23.476562 -0.0546875 22.953125 -0.441406 22.515625 -0.953125 C 21.835938 -1.765625 21.320312 -2.675781 20.96875 -3.6875 C 20.625 -4.695312 20.25 -5.707031 19.84375 -6.71875 C 18.863281 -9.21875 17.851562 -11.6875 16.8125 -14.125 C 15.769531 -16.5625 14.664062 -18.960938 13.5 -21.328125 C 13.75 -19.878906 14.007812 -18.429688 14.28125 -16.984375 C 14.5625 -15.535156 14.800781 -14.085938 15 -12.640625 C 15.207031 -11.203125 15.359375 -9.753906 15.453125 -8.296875 C 15.554688 -6.847656 15.539062 -5.398438 15.40625 -3.953125 C 15.332031 -3.285156 15.210938 -2.625 15.046875 -1.96875 C 14.890625 -1.320312 14.597656 -0.738281 14.171875 -0.21875 C 13.753906 0.25 13.238281 0.601562 12.625 0.84375 C 12.019531 1.09375 11.410156 1.265625 10.796875 1.359375 Z M 10.796875 1.359375 "/></g></g></g><g fill="#000000" fill-opacity="1"><g transform="translate(158.698914, 50.398172)"><g><path d="M 16.109375 -24.390625 C 15.566406 -24.023438 14.929688 -23.875 14.203125 -23.9375 C 13.472656 -24 12.796875 -24.144531 12.171875 -24.375 C 11.765625 -24.519531 11.363281 -24.703125 10.96875 -24.921875 C 10.570312 -25.140625 10.273438 -25.429688 10.078125 -25.796875 C 9.804688 -26.304688 9.664062 -26.863281 9.65625 -27.46875 C 9.644531 -28.082031 9.664062 -28.664062 9.71875 -29.21875 C 9.820312 -30.445312 9.90625 -31.65625 9.96875 -32.84375 C 10.039062 -34.039062 10.195312 -35.21875 10.4375 -36.375 C 10.570312 -37.070312 10.738281 -37.789062 10.9375 -38.53125 C 11.144531 -39.269531 11.535156 -39.828125 12.109375 -40.203125 C 12.460938 -40.441406 12.921875 -40.570312 13.484375 -40.59375 C 14.054688 -40.613281 14.644531 -40.578125 15.25 -40.484375 C 15.851562 -40.390625 16.441406 -40.253906 17.015625 -40.078125 C 17.597656 -39.910156 18.085938 -39.710938 18.484375 -39.484375 C 18.765625 -39.335938 19.054688 -39.164062 19.359375 -38.96875 C 19.660156 -38.769531 19.914062 -38.546875 20.125 -38.296875 C 20.46875 -37.847656 20.625 -37.238281 20.59375 -36.46875 C 20.613281 -35.90625 20.550781 -35.335938 20.40625 -34.765625 C 20.269531 -34.191406 20.140625 -33.644531 20.015625 -33.125 C 19.890625 -32.625 19.6875 -31.941406 19.40625 -31.078125 C 19.132812 -30.222656 18.828125 -29.335938 18.484375 -28.421875 C 18.148438 -27.515625 17.773438 -26.6875 17.359375 -25.9375 C 16.953125 -25.195312 16.535156 -24.679688 16.109375 -24.390625 Z M 16.109375 -24.390625 "/></g></g></g><g fill="#000000" fill-opacity="1"><g transform="translate(168.261249, 51.068463)"><g><path d="M 26.1875 11.65625 C 24.425781 12.039062 22.585938 12.101562 20.671875 11.84375 C 18.765625 11.59375 16.992188 11.039062 15.359375 10.1875 C 13.023438 8.96875 10.890625 7.398438 8.953125 5.484375 C 7.015625 3.578125 5.476562 1.441406 4.34375 -0.921875 C 4.101562 -1.390625 3.894531 -1.894531 3.71875 -2.4375 C 3.550781 -2.988281 3.507812 -3.550781 3.59375 -4.125 C 3.65625 -4.613281 3.816406 -5.078125 4.078125 -5.515625 C 4.347656 -5.960938 4.65625 -6.359375 5 -6.703125 C 6.195312 -8.066406 7.628906 -9.039062 9.296875 -9.625 C 9.492188 -9.695312 9.796875 -9.785156 10.203125 -9.890625 C 10.609375 -9.992188 11.015625 -10.082031 11.421875 -10.15625 C 11.828125 -10.226562 12.210938 -10.265625 12.578125 -10.265625 C 12.953125 -10.265625 13.25 -10.207031 13.46875 -10.09375 C 13.707031 -9.976562 13.984375 -9.6875 14.296875 -9.21875 C 14.617188 -8.757812 14.925781 -8.253906 15.21875 -7.703125 C 15.519531 -7.160156 15.800781 -6.640625 16.0625 -6.140625 C 16.320312 -5.640625 16.519531 -5.265625 16.65625 -5.015625 C 17.113281 -4.265625 17.644531 -3.550781 18.25 -2.875 C 18.851562 -2.195312 19.570312 -1.691406 20.40625 -1.359375 C 20.71875 -1.203125 21.066406 -1.082031 21.453125 -1 C 21.835938 -0.914062 22.191406 -0.953125 22.515625 -1.109375 C 22.960938 -1.304688 23.21875 -1.6875 23.28125 -2.25 C 23.351562 -2.8125 23.320312 -3.347656 23.1875 -3.859375 C 23.0625 -4.265625 22.898438 -4.648438 22.703125 -5.015625 C 22.515625 -5.378906 22.332031 -5.726562 22.15625 -6.0625 C 21.03125 -7.914062 19.785156 -9.691406 18.421875 -11.390625 C 17.054688 -13.097656 15.945312 -14.9375 15.09375 -16.90625 C 14.5625 -18.132812 14.28125 -19.4375 14.25 -20.8125 C 14.21875 -22.1875 14.398438 -23.53125 14.796875 -24.84375 C 15.191406 -26.15625 15.78125 -27.375 16.5625 -28.5 C 17.34375 -29.625 18.285156 -30.546875 19.390625 -31.265625 C 20.285156 -31.835938 21.222656 -32.269531 22.203125 -32.5625 C 23.179688 -32.863281 24.179688 -33.0625 25.203125 -33.15625 C 26.859375 -33.25 28.515625 -33.085938 30.171875 -32.671875 C 31.828125 -32.253906 33.394531 -31.675781 34.875 -30.9375 C 36.632812 -30.0625 38.289062 -29.035156 39.84375 -27.859375 C 41.40625 -26.691406 42.800781 -25.359375 44.03125 -23.859375 C 44.601562 -23.148438 45.132812 -22.394531 45.625 -21.59375 C 46.125 -20.800781 46.425781 -19.9375 46.53125 -19 C 46.625 -18.300781 46.53125 -17.601562 46.25 -16.90625 C 45.96875 -16.21875 45.601562 -15.613281 45.15625 -15.09375 C 44.71875 -14.5625 44.25 -14.078125 43.75 -13.640625 C 43.25 -13.210938 42.734375 -12.828125 42.203125 -12.484375 C 41.734375 -12.140625 41.222656 -11.898438 40.671875 -11.765625 C 40.128906 -11.628906 39.570312 -11.570312 39 -11.59375 C 38.5625 -11.601562 38.148438 -11.703125 37.765625 -11.890625 C 37.378906 -12.085938 37.007812 -12.3125 36.65625 -12.5625 C 35.789062 -13.269531 35.050781 -14.113281 34.4375 -15.09375 C 33.832031 -16.070312 33.148438 -16.972656 32.390625 -17.796875 C 32.128906 -18.054688 31.84375 -18.304688 31.53125 -18.546875 C 31.226562 -18.785156 30.90625 -18.945312 30.5625 -19.03125 C 30.113281 -19.164062 29.566406 -19.148438 28.921875 -18.984375 C 28.285156 -18.828125 27.832031 -18.554688 27.5625 -18.171875 C 27.300781 -17.816406 27.203125 -17.394531 27.265625 -16.90625 C 27.328125 -16.414062 27.476562 -15.910156 27.71875 -15.390625 C 27.957031 -14.878906 28.234375 -14.382812 28.546875 -13.90625 C 28.859375 -13.425781 29.132812 -12.988281 29.375 -12.59375 C 30.34375 -11.09375 31.328125 -9.597656 32.328125 -8.109375 C 33.335938 -6.628906 34.171875 -5.039062 34.828125 -3.34375 C 35.210938 -2.375 35.492188 -1.363281 35.671875 -0.3125 C 35.847656 0.738281 35.828125 1.785156 35.609375 2.828125 C 35.410156 3.828125 35.054688 4.773438 34.546875 5.671875 C 34.035156 6.578125 33.425781 7.378906 32.71875 8.078125 C 31.875 8.972656 30.878906 9.726562 29.734375 10.34375 C 28.597656 10.957031 27.414062 11.394531 26.1875 11.65625 Z M 26.1875 11.65625 "/></g></g></g><g fill="#000000" fill-opacity="1"><g transform="translate(195.600061, 65.366073)"><g/></g></g><g fill="#000000" fill-opacity="1"><g transform="translate(9.131138, 105.741528)"><g><path d="M -3.484375 21.90625 C -3.503906 19.738281 -3.171875 17.582031 -2.484375 15.4375 C -1.796875 13.289062 -0.78125 11.390625 0.5625 9.734375 C 1.476562 8.617188 2.546875 7.65625 3.765625 6.84375 C 4.992188 6.039062 6.265625 5.378906 7.578125 4.859375 C 8.660156 4.484375 9.726562 4.148438 10.78125 3.859375 C 11.84375 3.566406 12.9375 3.382812 14.0625 3.3125 C 15.769531 3.164062 17.484375 3.191406 19.203125 3.390625 C 20.921875 3.597656 22.597656 3.914062 24.234375 4.34375 C 26.429688 4.875 28.515625 5.710938 30.484375 6.859375 C 32.460938 8.015625 34.242188 9.394531 35.828125 11 C 37.273438 12.4375 38.414062 14.140625 39.25 16.109375 C 40.082031 18.085938 40.597656 20.09375 40.796875 22.125 C 40.929688 23.59375 40.859375 25.09375 40.578125 26.625 C 40.296875 28.15625 39.804688 29.566406 39.109375 30.859375 C 38.378906 32.242188 37.378906 33.484375 36.109375 34.578125 C 34.835938 35.671875 33.441406 36.460938 31.921875 36.953125 C 30.785156 37.285156 29.59375 37.425781 28.34375 37.375 C 27.101562 37.332031 25.9375 37.101562 24.84375 36.6875 C 24.125 36.445312 23.429688 36.128906 22.765625 35.734375 C 22.109375 35.347656 21.535156 34.851562 21.046875 34.25 C 20.390625 33.40625 19.988281 32.484375 19.84375 31.484375 C 19.769531 30.816406 19.769531 30.082031 19.84375 29.28125 C 19.914062 28.476562 20.066406 27.691406 20.296875 26.921875 C 20.523438 26.160156 20.847656 25.476562 21.265625 24.875 C 21.691406 24.28125 22.203125 23.835938 22.796875 23.546875 C 23.085938 23.421875 23.367188 23.347656 23.640625 23.328125 C 23.921875 23.304688 24.222656 23.289062 24.546875 23.28125 C 25.097656 23.300781 25.671875 23.296875 26.265625 23.265625 C 26.859375 23.242188 27.40625 23.101562 27.90625 22.84375 C 28.113281 22.75 28.316406 22.601562 28.515625 22.40625 C 28.722656 22.21875 28.84375 22.007812 28.875 21.78125 C 28.882812 21.34375 28.75 20.960938 28.46875 20.640625 C 28.195312 20.316406 27.921875 20.015625 27.640625 19.734375 C 26.671875 18.828125 25.59375 18.054688 24.40625 17.421875 C 23.21875 16.796875 21.992188 16.304688 20.734375 15.953125 C 19.546875 15.617188 18.304688 15.421875 17.015625 15.359375 C 15.722656 15.304688 14.523438 15.554688 13.421875 16.109375 C 13.085938 16.296875 12.75 16.515625 12.40625 16.765625 C 12.0625 17.023438 11.769531 17.320312 11.53125 17.65625 C 10.863281 18.5625 10.46875 19.5625 10.34375 20.65625 C 10.1875 21.582031 10.238281 22.523438 10.5 23.484375 C 10.769531 24.453125 10.953125 25.410156 11.046875 26.359375 C 11.085938 26.921875 11.085938 27.484375 11.046875 28.046875 C 11.003906 28.617188 10.847656 29.160156 10.578125 29.671875 C 10.253906 30.347656 9.816406 30.941406 9.265625 31.453125 C 8.710938 31.960938 8.109375 32.375 7.453125 32.6875 C 6.804688 33.007812 6.109375 33.222656 5.359375 33.328125 C 4.617188 33.441406 3.910156 33.394531 3.234375 33.1875 C 2.046875 32.894531 0.976562 32.304688 0.03125 31.421875 C -0.90625 30.535156 -1.648438 29.550781 -2.203125 28.46875 C -2.660156 27.457031 -2.988281 26.382812 -3.1875 25.25 C -3.394531 24.125 -3.492188 23.007812 -3.484375 21.90625 Z M -3.484375 21.90625 "/></g></g></g><g fill="#000000" fill-opacity="1"><g transform="translate(4.867232, 146.04233)"><g><path d="M 3.234375 22.671875 C 2.640625 20.835938 2.304688 18.914062 2.234375 16.90625 C 2.160156 14.90625 2.351562 12.957031 2.8125 11.0625 C 3.226562 9.71875 3.800781 8.398438 4.53125 7.109375 C 5.269531 5.828125 6.140625 4.691406 7.140625 3.703125 C 8.859375 2.046875 10.8125 0.703125 13 -0.328125 C 15.195312 -1.359375 17.457031 -2.140625 19.78125 -2.671875 C 22.050781 -3.140625 24.363281 -3.390625 26.71875 -3.421875 C 29.070312 -3.453125 31.378906 -3.1875 33.640625 -2.625 C 35.160156 -2.25 36.613281 -1.664062 38 -0.875 C 39.382812 -0.0820312 40.613281 0.890625 41.6875 2.046875 C 43.039062 3.453125 44.144531 5.0625 45 6.875 C 45.851562 8.6875 46.425781 10.539062 46.71875 12.4375 C 47.132812 15.164062 47.046875 17.800781 46.453125 20.34375 C 46.191406 21.4375 45.820312 22.488281 45.34375 23.5 C 44.863281 24.507812 44.285156 25.460938 43.609375 26.359375 C 43.066406 27.015625 42.453125 27.585938 41.765625 28.078125 C 41.085938 28.578125 40.390625 29.050781 39.671875 29.5 C 37.554688 30.851562 35.25 31.847656 32.75 32.484375 C 30.257812 33.128906 27.757812 33.5625 25.25 33.78125 C 23.113281 33.957031 20.976562 34.003906 18.84375 33.921875 C 16.707031 33.835938 14.632812 33.453125 12.625 32.765625 C 11.644531 32.429688 10.71875 32.007812 9.84375 31.5 C 8.96875 31 8.160156 30.398438 7.421875 29.703125 C 6.429688 28.742188 5.585938 27.660156 4.890625 26.453125 C 4.203125 25.253906 3.648438 23.992188 3.234375 22.671875 Z M 18.046875 14.8125 C 17.367188 15.382812 16.835938 16.125 16.453125 17.03125 C 16.078125 17.945312 15.957031 18.851562 16.09375 19.75 C 16.226562 20.445312 16.519531 21.023438 16.96875 21.484375 C 17.53125 22.140625 18.222656 22.625 19.046875 22.9375 C 19.867188 23.257812 20.691406 23.492188 21.515625 23.640625 C 23.429688 24.035156 25.394531 24.128906 27.40625 23.921875 C 29.425781 23.710938 31.332031 23.179688 33.125 22.328125 C 33.863281 22.003906 34.585938 21.566406 35.296875 21.015625 C 36.003906 20.472656 36.566406 19.820312 36.984375 19.0625 C 37.617188 18.03125 37.867188 16.859375 37.734375 15.546875 C 37.597656 14.242188 37.039062 13.222656 36.0625 12.484375 C 35.550781 12.148438 35.007812 11.882812 34.4375 11.6875 C 33.863281 11.5 33.285156 11.359375 32.703125 11.265625 C 31.640625 11.160156 30.597656 11.148438 29.578125 11.234375 C 28.554688 11.316406 27.53125 11.457031 26.5 11.65625 C 25.59375 11.789062 24.710938 11.976562 23.859375 12.21875 C 23.015625 12.46875 22.164062 12.757812 21.3125 13.09375 C 20.71875 13.332031 20.144531 13.582031 19.59375 13.84375 C 19.050781 14.101562 18.535156 14.425781 18.046875 14.8125 Z M 18.046875 14.8125 "/></g></g></g><g fill="#000000" fill-opacity="1"><g transform="translate(14.762003, 189.845666)"><g><path d="M 5.171875 12.4375 C 4.835938 12.132812 4.453125 11.640625 4.015625 10.953125 C 3.585938 10.273438 3.171875 9.546875 2.765625 8.765625 C 2.367188 7.984375 2.015625 7.207031 1.703125 6.4375 C 1.398438 5.664062 1.21875 5.054688 1.15625 4.609375 C 1.070312 4.023438 1.070312 3.425781 1.15625 2.8125 C 1.25 2.207031 1.445312 1.648438 1.75 1.140625 C 2.144531 0.566406 2.753906 0.117188 3.578125 -0.203125 C 3.710938 -0.273438 3.984375 -0.363281 4.390625 -0.46875 C 4.804688 -0.570312 5.242188 -0.691406 5.703125 -0.828125 C 6.160156 -0.960938 6.59375 -1.085938 7 -1.203125 C 7.40625 -1.328125 7.660156 -1.414062 7.765625 -1.46875 C 9.210938 -1.9375 10.628906 -2.476562 12.015625 -3.09375 C 13.398438 -3.707031 14.785156 -4.320312 16.171875 -4.9375 C 17.890625 -5.726562 19.546875 -6.566406 21.140625 -7.453125 C 22.734375 -8.347656 24.335938 -9.273438 25.953125 -10.234375 C 26.015625 -10.265625 26.164062 -10.347656 26.40625 -10.484375 C 26.65625 -10.617188 26.90625 -10.765625 27.15625 -10.921875 C 27.40625 -11.078125 27.644531 -11.226562 27.875 -11.375 C 28.113281 -11.53125 28.269531 -11.625 28.34375 -11.65625 C 29.175781 -12.25 30 -12.851562 30.8125 -13.46875 C 31.632812 -14.09375 32.515625 -14.613281 33.453125 -15.03125 C 34.160156 -15.363281 34.914062 -15.648438 35.71875 -15.890625 C 36.53125 -16.128906 37.328125 -16.15625 38.109375 -15.96875 C 38.671875 -15.8125 39.191406 -15.539062 39.671875 -15.15625 C 40.148438 -14.769531 40.570312 -14.363281 40.9375 -13.9375 C 42.101562 -12.695312 43.066406 -11.296875 43.828125 -9.734375 C 43.972656 -9.460938 44.238281 -8.882812 44.625 -8 C 45.019531 -7.125 45.445312 -6.1875 45.90625 -5.1875 C 46.375 -4.195312 46.800781 -3.257812 47.1875 -2.375 C 47.582031 -1.488281 47.851562 -0.90625 48 -0.625 C 48.488281 0.34375 49.019531 1.296875 49.59375 2.234375 C 50.175781 3.179688 50.660156 4.171875 51.046875 5.203125 C 51.378906 6.003906 51.445312 6.75 51.25 7.4375 C 51.15625 7.84375 50.992188 8.207031 50.765625 8.53125 C 50.535156 8.851562 50.265625 9.140625 49.953125 9.390625 C 49.484375 9.828125 48.910156 10.269531 48.234375 10.71875 C 47.566406 11.175781 46.875 11.546875 46.15625 11.828125 C 45.4375 12.109375 44.722656 12.269531 44.015625 12.3125 C 43.304688 12.363281 42.675781 12.207031 42.125 11.84375 C 41.394531 11.332031 40.796875 10.644531 40.328125 9.78125 C 39.648438 8.6875 39.097656 7.519531 38.671875 6.28125 C 38.242188 5.039062 37.78125 3.820312 37.28125 2.625 C 37.039062 2.132812 36.804688 1.632812 36.578125 1.125 C 36.359375 0.613281 36.046875 0.1875 35.640625 -0.15625 C 35.421875 -0.3125 35.195312 -0.394531 34.96875 -0.40625 C 34.46875 -0.34375 33.851562 -0.128906 33.125 0.234375 C 32.40625 0.597656 31.960938 1.023438 31.796875 1.515625 C 31.753906 1.710938 31.765625 1.90625 31.828125 2.09375 C 31.890625 2.28125 31.953125 2.46875 32.015625 2.65625 C 32.566406 4.101562 33.3125 5.453125 34.25 6.703125 C 35.1875 7.960938 36.039062 9.296875 36.8125 10.703125 C 36.976562 11.015625 37.140625 11.347656 37.296875 11.703125 C 37.453125 12.066406 37.53125 12.453125 37.53125 12.859375 C 37.539062 13.117188 37.488281 13.375 37.375 13.625 C 37.257812 13.882812 37.132812 14.128906 37 14.359375 C 36.664062 14.796875 36.222656 15.226562 35.671875 15.65625 C 35.117188 16.09375 34.535156 16.445312 33.921875 16.71875 C 33.304688 16.988281 32.675781 17.160156 32.03125 17.234375 C 31.382812 17.304688 30.785156 17.25 30.234375 17.0625 C 29.679688 16.875 29.179688 16.554688 28.734375 16.109375 C 28.296875 15.660156 27.90625 15.191406 27.5625 14.703125 C 26.71875 13.460938 26.03125 12.160156 25.5 10.796875 C 24.976562 9.429688 24.304688 8.148438 23.484375 6.953125 C 22.535156 7.585938 21.554688 8.191406 20.546875 8.765625 C 19.546875 9.335938 18.546875 9.894531 17.546875 10.4375 C 16.378906 11.070312 15.175781 11.664062 13.9375 12.21875 C 12.695312 12.78125 11.425781 13.210938 10.125 13.515625 C 9.320312 13.671875 8.460938 13.660156 7.546875 13.484375 C 6.628906 13.316406 5.835938 12.96875 5.171875 12.4375 Z M 5.171875 12.4375 "/></g></g></g><g fill="#000000" fill-opacity="1"><g transform="translate(33.408957, 222.871924)"><g><path d="M 8.390625 10.5625 C 7.972656 10.351562 7.460938 9.976562 6.859375 9.4375 C 6.253906 8.90625 5.648438 8.316406 5.046875 7.671875 C 4.453125 7.023438 3.90625 6.375 3.40625 5.71875 C 2.90625 5.0625 2.554688 4.523438 2.359375 4.109375 C 2.117188 3.578125 1.960938 3.003906 1.890625 2.390625 C 1.816406 1.785156 1.851562 1.191406 2 0.609375 C 2.226562 -0.0546875 2.6875 -0.644531 3.375 -1.15625 C 3.488281 -1.269531 3.726562 -1.429688 4.09375 -1.640625 C 4.46875 -1.859375 4.851562 -2.097656 5.25 -2.359375 C 5.65625 -2.617188 6.035156 -2.859375 6.390625 -3.078125 C 6.753906 -3.304688 6.976562 -3.457031 7.0625 -3.53125 C 8.332031 -4.363281 9.550781 -5.265625 10.71875 -6.234375 C 11.882812 -7.210938 13.050781 -8.1875 14.21875 -9.15625 C 15.65625 -10.382812 17.019531 -11.644531 18.3125 -12.9375 C 19.601562 -14.226562 20.894531 -15.554688 22.1875 -16.921875 C 22.238281 -16.972656 22.363281 -17.09375 22.5625 -17.28125 C 22.757812 -17.476562 22.957031 -17.6875 23.15625 -17.90625 C 23.351562 -18.132812 23.539062 -18.347656 23.71875 -18.546875 C 23.894531 -18.753906 24.015625 -18.882812 24.078125 -18.9375 C 24.734375 -19.738281 25.367188 -20.546875 25.984375 -21.359375 C 26.609375 -22.179688 27.3125 -22.921875 28.09375 -23.578125 C 28.675781 -24.097656 29.328125 -24.582031 30.046875 -25.03125 C 30.765625 -25.476562 31.519531 -25.71875 32.3125 -25.75 C 32.894531 -25.75 33.46875 -25.628906 34.03125 -25.390625 C 34.601562 -25.148438 35.125 -24.875 35.59375 -24.5625 C 37.050781 -23.675781 38.351562 -22.59375 39.5 -21.3125 C 39.71875 -21.09375 40.132812 -20.609375 40.75 -19.859375 C 41.363281 -19.117188 42.03125 -18.332031 42.75 -17.5 C 43.476562 -16.675781 44.144531 -15.890625 44.75 -15.140625 C 45.363281 -14.398438 45.785156 -13.914062 46.015625 -13.6875 C 46.753906 -12.875 47.523438 -12.09375 48.328125 -11.34375 C 49.140625 -10.601562 49.867188 -9.785156 50.515625 -8.890625 C 51.066406 -8.222656 51.335938 -7.523438 51.328125 -6.796875 C 51.347656 -6.390625 51.289062 -6 51.15625 -5.625 C 51.03125 -5.25 50.859375 -4.898438 50.640625 -4.578125 C 50.285156 -4.023438 49.847656 -3.4375 49.328125 -2.8125 C 48.816406 -2.195312 48.25 -1.65625 47.625 -1.1875 C 47.007812 -0.726562 46.367188 -0.378906 45.703125 -0.140625 C 45.035156 0.0976562 44.382812 0.117188 43.75 -0.078125 C 42.914062 -0.367188 42.160156 -0.867188 41.484375 -1.578125 C 40.523438 -2.453125 39.671875 -3.421875 38.921875 -4.484375 C 38.171875 -5.554688 37.394531 -6.601562 36.59375 -7.625 C 36.226562 -8.039062 35.867188 -8.460938 35.515625 -8.890625 C 35.160156 -9.316406 34.734375 -9.632812 34.234375 -9.84375 C 33.984375 -9.945312 33.753906 -9.96875 33.546875 -9.90625 C 33.054688 -9.71875 32.515625 -9.347656 31.921875 -8.796875 C 31.335938 -8.253906 31.03125 -7.722656 31 -7.203125 C 31.019531 -7.003906 31.082031 -6.820312 31.1875 -6.65625 C 31.300781 -6.488281 31.410156 -6.320312 31.515625 -6.15625 C 32.441406 -4.925781 33.53125 -3.832031 34.78125 -2.875 C 36.03125 -1.925781 37.21875 -0.878906 38.34375 0.265625 C 38.582031 0.515625 38.828125 0.789062 39.078125 1.09375 C 39.328125 1.40625 39.503906 1.757812 39.609375 2.15625 C 39.691406 2.40625 39.710938 2.664062 39.671875 2.9375 C 39.640625 3.21875 39.585938 3.476562 39.515625 3.71875 C 39.296875 4.25 38.984375 4.796875 38.578125 5.359375 C 38.171875 5.929688 37.707031 6.425781 37.1875 6.84375 C 36.675781 7.269531 36.117188 7.609375 35.515625 7.859375 C 34.921875 8.109375 34.332031 8.210938 33.75 8.171875 C 33.164062 8.148438 32.597656 7.984375 32.046875 7.671875 C 31.492188 7.359375 30.984375 7.007812 30.515625 6.625 C 29.359375 5.675781 28.34375 4.613281 27.46875 3.4375 C 26.601562 2.269531 25.609375 1.222656 24.484375 0.296875 C 23.753906 1.171875 22.984375 2.019531 22.171875 2.84375 C 21.359375 3.664062 20.546875 4.472656 19.734375 5.265625 C 18.773438 6.191406 17.773438 7.085938 16.734375 7.953125 C 15.703125 8.828125 14.597656 9.59375 13.421875 10.25 C 12.691406 10.613281 11.863281 10.835938 10.9375 10.921875 C 10.007812 11.003906 9.160156 10.882812 8.390625 10.5625 Z M 8.390625 10.5625 "/></g></g></g><g fill="#000000" fill-opacity="1"><g transform="translate(60.364447, 249.624799)"><g><path d="M 19.3125 11.609375 C 18.21875 11.160156 17.148438 10.660156 16.109375 10.109375 C 15.066406 9.554688 14.039062 8.941406 13.03125 8.265625 C 11.851562 7.554688 10.722656 6.722656 9.640625 5.765625 C 8.554688 4.804688 7.71875 3.707031 7.125 2.46875 C 6.664062 1.46875 6.421875 0.40625 6.390625 -0.71875 C 6.359375 -1.84375 6.4375 -2.9375 6.625 -4 C 6.875 -5.445312 7.25 -6.867188 7.75 -8.265625 C 8.257812 -9.671875 8.816406 -11.054688 9.421875 -12.421875 C 10.304688 -14.359375 11.28125 -16.238281 12.34375 -18.0625 C 13.414062 -19.894531 14.546875 -21.6875 15.734375 -23.4375 C 17.023438 -25.289062 18.421875 -27.035156 19.921875 -28.671875 C 21.429688 -30.316406 23.179688 -31.65625 25.171875 -32.6875 C 25.722656 -33.007812 26.320312 -33.265625 26.96875 -33.453125 C 27.625 -33.640625 28.257812 -33.691406 28.875 -33.609375 C 29.238281 -33.546875 29.773438 -33.304688 30.484375 -32.890625 C 31.203125 -32.484375 32.003906 -31.96875 32.890625 -31.34375 C 33.785156 -30.71875 34.726562 -30.039062 35.71875 -29.3125 C 36.707031 -28.59375 37.65625 -27.914062 38.5625 -27.28125 C 39.46875 -26.65625 40.265625 -26.109375 40.953125 -25.640625 C 41.648438 -25.171875 42.1875 -24.898438 42.5625 -24.828125 C 43.050781 -24.679688 43.550781 -24.515625 44.0625 -24.328125 C 44.582031 -24.148438 45.082031 -23.925781 45.5625 -23.65625 C 45.832031 -23.445312 46.085938 -23.210938 46.328125 -22.953125 C 46.566406 -22.703125 46.78125 -22.414062 46.96875 -22.09375 C 47.207031 -21.507812 47.300781 -20.859375 47.25 -20.140625 C 47.207031 -19.421875 47.046875 -18.703125 46.765625 -17.984375 C 46.492188 -17.265625 46.125 -16.59375 45.65625 -15.96875 C 45.1875 -15.351562 44.703125 -14.847656 44.203125 -14.453125 C 43.753906 -14.085938 43.242188 -13.796875 42.671875 -13.578125 C 42.097656 -13.359375 41.53125 -13.226562 40.96875 -13.1875 C 40.1875 -13.144531 39.425781 -13.253906 38.6875 -13.515625 C 37.957031 -13.773438 37.257812 -14.117188 36.59375 -14.546875 C 35.71875 -15.140625 34.878906 -15.800781 34.078125 -16.53125 C 33.285156 -17.257812 32.457031 -17.984375 31.59375 -18.703125 C 31.1875 -19.078125 30.757812 -19.390625 30.3125 -19.640625 C 29.863281 -19.804688 29.421875 -19.789062 28.984375 -19.59375 C 28.578125 -19.363281 28.234375 -19.0625 27.953125 -18.6875 C 27.671875 -18.3125 27.515625 -17.898438 27.484375 -17.453125 C 27.390625 -17.066406 27.453125 -16.734375 27.671875 -16.453125 C 27.828125 -16.179688 28.179688 -15.878906 28.734375 -15.546875 C 29.285156 -15.222656 29.875 -14.890625 30.5 -14.546875 C 31.125 -14.203125 31.738281 -13.894531 32.34375 -13.625 C 32.957031 -13.351562 33.40625 -13.148438 33.6875 -13.015625 C 34.195312 -12.816406 34.6875 -12.59375 35.15625 -12.34375 C 35.632812 -12.101562 36.082031 -11.789062 36.5 -11.40625 C 37.1875 -10.882812 37.570312 -10.191406 37.65625 -9.328125 C 37.71875 -8.703125 37.625 -8.050781 37.375 -7.375 C 37.132812 -6.707031 36.78125 -6.066406 36.3125 -5.453125 C 35.84375 -4.847656 35.328125 -4.296875 34.765625 -3.796875 C 34.210938 -3.304688 33.660156 -2.925781 33.109375 -2.65625 C 32.566406 -2.425781 31.957031 -2.390625 31.28125 -2.546875 C 30.601562 -2.710938 29.90625 -2.972656 29.1875 -3.328125 C 28.476562 -3.691406 27.804688 -4.113281 27.171875 -4.59375 C 26.535156 -5.070312 25.992188 -5.503906 25.546875 -5.890625 C 25.398438 -6.023438 25.171875 -6.257812 24.859375 -6.59375 C 24.554688 -6.9375 24.21875 -7.273438 23.84375 -7.609375 C 23.476562 -7.953125 23.125 -8.28125 22.78125 -8.59375 C 22.445312 -8.90625 22.195312 -9.113281 22.03125 -9.21875 C 21.832031 -9.269531 21.664062 -9.222656 21.53125 -9.078125 C 21.394531 -8.929688 21.28125 -8.773438 21.1875 -8.609375 C 20.65625 -7.921875 20.265625 -7.097656 20.015625 -6.140625 C 19.765625 -5.191406 19.804688 -4.332031 20.140625 -3.5625 C 20.492188 -2.6875 21.09375 -1.984375 21.9375 -1.453125 C 22.78125 -0.921875 23.671875 -0.550781 24.609375 -0.34375 C 25.503906 -0.09375 26.390625 0.109375 27.265625 0.265625 C 28.140625 0.429688 29.003906 0.671875 29.859375 0.984375 C 30.347656 1.179688 30.816406 1.394531 31.265625 1.625 C 31.722656 1.851562 32.082031 2.164062 32.34375 2.5625 C 32.65625 2.988281 32.835938 3.46875 32.890625 4 C 32.972656 5.03125 32.921875 6.082031 32.734375 7.15625 C 32.546875 8.226562 32.175781 9.21875 31.625 10.125 C 30.863281 11.269531 29.851562 12.113281 28.59375 12.65625 C 27.34375 13.195312 26.035156 13.394531 24.671875 13.25 C 23.703125 13.113281 22.773438 12.890625 21.890625 12.578125 C 21.015625 12.273438 20.15625 11.953125 19.3125 11.609375 Z M 19.3125 11.609375 "/></g></g></g><g fill="#000000" fill-opacity="1"><g transform="translate(94.205357, 268.207144)"><g><path d="M 21.78125 5.796875 C 20.59375 5.671875 19.421875 5.488281 18.265625 5.25 C 17.117188 5.007812 15.960938 4.707031 14.796875 4.34375 C 13.472656 3.976562 12.160156 3.484375 10.859375 2.859375 C 9.554688 2.234375 8.441406 1.410156 7.515625 0.390625 C 6.804688 -0.441406 6.273438 -1.390625 5.921875 -2.453125 C 5.578125 -3.523438 5.359375 -4.601562 5.265625 -5.6875 C 5.097656 -7.132812 5.0625 -8.601562 5.15625 -10.09375 C 5.257812 -11.582031 5.410156 -13.070312 5.609375 -14.5625 C 5.921875 -16.65625 6.335938 -18.726562 6.859375 -20.78125 C 7.378906 -22.832031 7.96875 -24.875 8.625 -26.90625 C 9.351562 -29.019531 10.210938 -31.070312 11.203125 -33.0625 C 12.191406 -35.0625 13.5 -36.832031 15.125 -38.375 C 15.5625 -38.84375 16.0625 -39.257812 16.625 -39.625 C 17.195312 -39.988281 17.800781 -40.207031 18.4375 -40.28125 C 18.800781 -40.320312 19.378906 -40.242188 20.171875 -40.046875 C 20.972656 -39.859375 21.882812 -39.585938 22.90625 -39.234375 C 23.9375 -38.890625 25.023438 -38.5 26.171875 -38.0625 C 27.328125 -37.632812 28.425781 -37.242188 29.46875 -36.890625 C 30.519531 -36.546875 31.441406 -36.242188 32.234375 -35.984375 C 33.035156 -35.722656 33.625 -35.613281 34 -35.65625 C 34.53125 -35.644531 35.0625 -35.625 35.59375 -35.59375 C 36.132812 -35.5625 36.671875 -35.484375 37.203125 -35.359375 C 37.523438 -35.234375 37.835938 -35.082031 38.140625 -34.90625 C 38.441406 -34.738281 38.726562 -34.515625 39 -34.234375 C 39.40625 -33.742188 39.679688 -33.144531 39.828125 -32.4375 C 39.984375 -31.738281 40.023438 -31.003906 39.953125 -30.234375 C 39.878906 -29.460938 39.703125 -28.710938 39.421875 -27.984375 C 39.148438 -27.265625 38.832031 -26.648438 38.46875 -26.140625 C 38.15625 -25.648438 37.75 -25.222656 37.25 -24.859375 C 36.757812 -24.492188 36.25 -24.21875 35.71875 -24.03125 C 34.96875 -23.769531 34.203125 -23.664062 33.421875 -23.71875 C 32.648438 -23.769531 31.890625 -23.90625 31.140625 -24.125 C 30.128906 -24.445312 29.132812 -24.847656 28.15625 -25.328125 C 27.1875 -25.804688 26.191406 -26.273438 25.171875 -26.734375 C 24.660156 -26.960938 24.160156 -27.140625 23.671875 -27.265625 C 23.203125 -27.316406 22.785156 -27.179688 22.421875 -26.859375 C 22.097656 -26.523438 21.847656 -26.132812 21.671875 -25.6875 C 21.503906 -25.25 21.46875 -24.816406 21.5625 -24.390625 C 21.59375 -23.984375 21.75 -23.6875 22.03125 -23.5 C 22.25 -23.28125 22.671875 -23.082031 23.296875 -22.90625 C 23.921875 -22.738281 24.578125 -22.578125 25.265625 -22.421875 C 25.960938 -22.273438 26.640625 -22.15625 27.296875 -22.0625 C 27.960938 -21.96875 28.453125 -21.894531 28.765625 -21.84375 C 29.316406 -21.800781 29.851562 -21.722656 30.375 -21.609375 C 30.894531 -21.503906 31.40625 -21.328125 31.90625 -21.078125 C 32.707031 -20.765625 33.273438 -20.203125 33.609375 -19.390625 C 33.828125 -18.804688 33.910156 -18.160156 33.859375 -17.453125 C 33.804688 -16.742188 33.640625 -16.023438 33.359375 -15.296875 C 33.085938 -14.578125 32.753906 -13.90625 32.359375 -13.28125 C 31.960938 -12.65625 31.535156 -12.140625 31.078125 -11.734375 C 30.617188 -11.359375 30.039062 -11.148438 29.34375 -11.109375 C 28.65625 -11.078125 27.914062 -11.132812 27.125 -11.28125 C 26.332031 -11.4375 25.566406 -11.65625 24.828125 -11.9375 C 24.085938 -12.226562 23.445312 -12.492188 22.90625 -12.734375 C 22.71875 -12.828125 22.429688 -12.992188 22.046875 -13.234375 C 21.671875 -13.472656 21.253906 -13.707031 20.796875 -13.9375 C 20.347656 -14.164062 19.914062 -14.378906 19.5 -14.578125 C 19.09375 -14.773438 18.789062 -14.894531 18.59375 -14.9375 C 18.40625 -14.957031 18.265625 -14.878906 18.171875 -14.703125 C 18.085938 -14.523438 18.019531 -14.335938 17.96875 -14.140625 C 17.664062 -13.316406 17.523438 -12.421875 17.546875 -11.453125 C 17.566406 -10.484375 17.835938 -9.671875 18.359375 -9.015625 C 18.953125 -8.273438 19.726562 -7.765625 20.6875 -7.484375 C 21.644531 -7.203125 22.59375 -7.09375 23.53125 -7.15625 C 24.46875 -7.15625 25.378906 -7.203125 26.265625 -7.296875 C 27.148438 -7.390625 28.054688 -7.398438 28.984375 -7.328125 C 29.484375 -7.285156 29.984375 -7.210938 30.484375 -7.109375 C 30.992188 -7.003906 31.429688 -6.8125 31.796875 -6.53125 C 32.191406 -6.1875 32.492188 -5.765625 32.703125 -5.265625 C 33.078125 -4.296875 33.320312 -3.269531 33.4375 -2.1875 C 33.5625 -1.101562 33.476562 -0.0507812 33.1875 0.96875 C 32.78125 2.28125 32.046875 3.367188 30.984375 4.234375 C 29.921875 5.097656 28.722656 5.648438 27.390625 5.890625 C 26.421875 6.015625 25.460938 6.050781 24.515625 6 C 23.578125 5.957031 22.664062 5.890625 21.78125 5.796875 Z M 21.78125 5.796875 "/></g></g></g><g fill="#000000" fill-opacity="1"><g transform="translate(130.717295, 275.836903)"><g/></g></g><path fill="#000000" d="M 200.828125 82.429688 C 168.195312 49.800781 115.289062 49.800781 82.660156 82.429688 C 50.03125 115.0625 50.03125 167.964844 82.660156 200.597656 C 115.289062 233.226562 168.195312 233.226562 200.828125 200.597656 C 233.457031 167.964844 233.457031 115.0625 200.828125 82.429688 Z M 177.644531 90.375 C 178.777344 88.933594 180.867188 88.683594 182.308594 89.816406 C 183.511719 90.761719 184.691406 91.761719 185.832031 92.769531 C 187.195312 94.003906 187.304688 96.109375 186.074219 97.476562 C 184.839844 98.84375 182.730469 98.953125 181.367188 97.71875 C 180.34375 96.796875 179.28125 95.894531 178.199219 95.046875 C 176.753906 93.910156 176.503906 91.820312 177.640625 90.378906 Z M 146.375 79.210938 C 146.609375 77.390625 148.269531 76.101562 150.09375 76.332031 C 151.613281 76.523438 153.140625 76.773438 154.640625 77.070312 C 155.824219 77.285156 156.796875 78.121094 157.1875 79.253906 C 157.578125 80.390625 157.328125 81.648438 156.53125 82.542969 C 155.734375 83.445312 154.515625 83.84375 153.34375 83.585938 C 151.996094 83.316406 150.621094 83.09375 149.253906 82.921875 C 147.4375 82.691406 146.148438 81.03125 146.375 79.210938 Z M 143.125 95.765625 C 144.695312 95.808594 146.265625 95.933594 147.824219 96.132812 C 149.558594 96.367188 150.8125 97.902344 150.699219 99.644531 C 150.585938 101.390625 149.140625 102.746094 147.394531 102.75 C 147.242188 102.75 147.097656 102.742188 146.949219 102.722656 C 145.617188 102.542969 144.273438 102.4375 142.929688 102.398438 C 141.09375 102.34375 139.648438 100.8125 139.703125 98.976562 C 139.757812 97.140625 141.289062 95.695312 143.125 95.75 Z M 79.304688 139.527344 C 77.476562 139.371094 76.117188 137.765625 76.273438 135.9375 C 76.402344 134.414062 76.585938 132.875 76.820312 131.363281 C 77.101562 129.546875 78.800781 128.300781 80.617188 128.582031 C 82.4375 128.863281 83.679688 130.566406 83.398438 132.382812 C 83.1875 133.738281 83.027344 135.121094 82.90625 136.496094 C 82.765625 138.222656 81.316406 139.546875 79.582031 139.542969 C 79.492188 139.539062 79.398438 139.535156 79.304688 139.527344 Z M 87.089844 171.792969 C 85.445312 172.589844 83.464844 171.90625 82.660156 170.261719 C 81.988281 168.882812 81.359375 167.46875 80.792969 166.050781 C 80.105469 164.347656 80.929688 162.414062 82.636719 161.726562 C 84.335938 161.042969 86.273438 161.867188 86.957031 163.570312 C 87.472656 164.839844 88.035156 166.113281 88.636719 167.351562 C 89.023438 168.144531 89.078125 169.058594 88.785156 169.894531 C 88.496094 170.726562 87.886719 171.410156 87.089844 171.792969 Z M 91.070312 108.449219 C 89.824219 108.449219 88.683594 107.75 88.117188 106.640625 C 87.546875 105.53125 87.648438 104.195312 88.375 103.183594 C 89.269531 101.941406 90.222656 100.714844 91.199219 99.539062 C 92.371094 98.128906 94.464844 97.933594 95.878906 99.109375 C 97.289062 100.28125 97.480469 102.378906 96.308594 103.789062 C 95.429688 104.84375 94.574219 105.949219 93.773438 107.070312 C 93.144531 107.9375 92.136719 108.449219 91.0625 108.445312 Z M 99.25 143.984375 C 97.410156 143.949219 95.953125 142.429688 95.992188 140.59375 C 96.023438 139.023438 96.132812 137.453125 96.320312 135.894531 C 96.449219 134.699219 97.210938 133.667969 98.316406 133.195312 C 99.421875 132.722656 100.691406 132.878906 101.648438 133.605469 C 102.601562 134.335938 103.085938 135.523438 102.917969 136.714844 C 102.753906 138.050781 102.660156 139.390625 102.632812 140.738281 C 102.597656 142.546875 101.121094 143.996094 99.308594 143.996094 Z M 110.324219 195.519531 C 109.316406 197.054688 107.257812 197.480469 105.726562 196.472656 C 104.449219 195.632812 103.179688 194.738281 101.960938 193.808594 C 100.503906 192.699219 100.21875 190.613281 101.332031 189.152344 C 102.445312 187.691406 104.53125 187.410156 105.988281 188.519531 C 107.097656 189.355469 108.222656 190.164062 109.371094 190.917969 C 110.902344 191.929688 111.320312 193.988281 110.316406 195.515625 Z M 113.609375 173.453125 C 112.972656 174.078125 112.117188 174.421875 111.226562 174.40625 C 110.339844 174.394531 109.492188 174.023438 108.878906 173.382812 C 107.785156 172.253906 106.746094 171.070312 105.773438 169.832031 C 104.652344 168.390625 104.90625 166.316406 106.339844 165.1875 C 107.769531 164.054688 109.847656 164.289062 110.988281 165.714844 C 111.824219 166.773438 112.710938 167.785156 113.648438 168.75 C 114.933594 170.0625 114.90625 172.167969 113.59375 173.453125 Z M 117.851562 110.535156 C 116.785156 111.359375 115.765625 112.234375 114.789062 113.160156 C 113.449219 114.292969 111.457031 114.183594 110.246094 112.914062 C 109.03125 111.644531 109.019531 109.648438 110.210938 108.363281 C 111.351562 107.277344 112.546875 106.253906 113.789062 105.292969 C 115.242188 104.230469 117.28125 104.515625 118.382812 105.941406 C 119.484375 107.371094 119.25 109.414062 117.851562 110.550781 Z M 122.035156 85.820312 C 120.738281 86.28125 119.449219 86.789062 118.1875 87.335938 C 116.503906 88.074219 114.542969 87.304688 113.808594 85.621094 C 113.074219 83.9375 113.839844 81.976562 115.523438 81.242188 C 116.925781 80.632812 118.371094 80.0625 119.808594 79.554688 C 121.542969 78.945312 123.445312 79.851562 124.054688 81.585938 C 124.667969 83.316406 123.757812 85.21875 122.023438 85.832031 Z M 139.089844 207.167969 L 138.949219 207.167969 C 137.421875 207.101562 135.875 206.984375 134.359375 206.796875 C 132.535156 206.59375 131.21875 204.949219 131.421875 203.125 C 131.628906 201.300781 133.273438 199.988281 135.097656 200.191406 C 136.460938 200.339844 137.851562 200.449219 139.226562 200.507812 C 141.0625 200.546875 142.519531 202.066406 142.484375 203.902344 C 142.445312 205.734375 140.925781 207.191406 139.089844 207.15625 Z M 141.308594 187.277344 L 141.273438 187.277344 C 139.703125 187.261719 138.132812 187.164062 136.570312 186.988281 C 134.746094 186.785156 133.433594 185.140625 133.636719 183.316406 C 133.839844 181.492188 135.484375 180.179688 137.308594 180.382812 C 138.644531 180.53125 139.992188 180.613281 141.335938 180.625 C 143.171875 180.636719 144.652344 182.132812 144.644531 183.964844 C 144.636719 185.800781 143.140625 187.285156 141.304688 187.273438 Z M 141.742188 159.238281 C 131.953125 159.238281 124.019531 151.304688 124.019531 141.515625 C 124.019531 131.726562 131.953125 123.789062 141.742188 123.789062 C 151.53125 123.789062 159.46875 131.726562 159.46875 141.515625 C 159.46875 151.304688 151.53125 159.238281 141.742188 159.238281 Z M 172.972656 199.34375 C 171.625 200.082031 170.238281 200.761719 168.847656 201.394531 C 167.171875 202.148438 165.203125 201.402344 164.449219 199.730469 C 163.695312 198.054688 164.441406 196.085938 166.113281 195.328125 C 167.363281 194.765625 168.609375 194.144531 169.808594 193.484375 C 171.421875 192.609375 173.4375 193.210938 174.3125 194.824219 C 175.183594 196.4375 174.585938 198.457031 172.972656 199.332031 Z M 173.941406 174.046875 C 172.820312 175.152344 171.648438 176.203125 170.425781 177.1875 C 169.507812 177.992188 168.222656 178.230469 167.078125 177.804688 C 165.9375 177.382812 165.117188 176.363281 164.945312 175.15625 C 164.773438 173.949219 165.273438 172.746094 166.253906 172.019531 C 167.304688 171.175781 168.308594 170.277344 169.265625 169.332031 C 170.574219 168.085938 172.640625 168.117188 173.914062 169.402344 C 175.1875 170.6875 175.199219 172.753906 173.941406 174.054688 Z M 177.632812 118.585938 C 176.167969 119.695312 174.082031 119.402344 172.976562 117.9375 C 172.167969 116.871094 171.304688 115.835938 170.390625 114.851562 C 169.140625 113.507812 169.214844 111.40625 170.554688 110.15625 C 171.902344 108.90625 174.003906 108.980469 175.253906 110.320312 C 176.328125 111.472656 177.339844 112.675781 178.289062 113.929688 C 179.386719 115.398438 179.085938 117.480469 177.617188 118.578125 Z M 187.285156 146.226562 C 187.097656 148.050781 185.46875 149.382812 183.640625 149.195312 C 181.8125 149.007812 180.484375 147.375 180.671875 145.550781 C 180.808594 144.210938 180.875 142.867188 180.875 141.519531 C 180.875 139.6875 182.363281 138.199219 184.199219 138.199219 C 186.03125 138.199219 187.519531 139.6875 187.519531 141.519531 C 187.515625 143.09375 187.433594 144.660156 187.269531 146.222656 Z M 198.195312 175.183594 C 197.410156 176.503906 196.570312 177.800781 195.691406 179.058594 C 194.632812 180.535156 192.582031 180.886719 191.089844 179.847656 C 189.597656 178.804688 189.21875 176.757812 190.242188 175.253906 C 191.03125 174.148438 191.785156 172.957031 192.492188 171.773438 C 193.089844 170.734375 194.203125 170.09375 195.40625 170.105469 C 196.605469 170.117188 197.707031 170.773438 198.289062 171.828125 C 198.867188 172.878906 198.832031 174.164062 198.195312 175.183594 Z M 198.238281 124.195312 C 197.835938 122.886719 197.378906 121.566406 196.886719 120.28125 C 196.367188 119.15625 196.519531 117.84375 197.273438 116.863281 C 198.027344 115.886719 199.261719 115.40625 200.480469 115.621094 C 201.695312 115.832031 202.695312 116.707031 203.070312 117.878906 C 203.621094 119.3125 204.132812 120.78125 204.578125 122.238281 C 204.941406 123.378906 204.664062 124.625 203.851562 125.503906 C 203.039062 126.382812 201.816406 126.757812 200.652344 126.480469 C 199.488281 126.210938 198.558594 125.332031 198.222656 124.183594 Z M 203.996094 149.210938 L 203.761719 149.210938 C 201.929688 149.085938 200.546875 147.5 200.675781 145.667969 C 200.769531 144.300781 200.820312 142.90625 200.820312 141.523438 C 200.820312 139.691406 202.304688 138.203125 204.140625 138.203125 C 205.976562 138.203125 207.464844 139.691406 207.464844 141.523438 C 207.464844 143.058594 207.414062 144.605469 207.308594 146.125 C 207.179688 147.867188 205.726562 149.214844 203.980469 149.210938 Z M 203.996094 149.210938 " fill-opacity="1" fill-rule="nonzero"/><g fill="#000000" fill-opacity="1"><g transform="translate(194.062053, 267.232229)"><g><path d="M 21.921875 -12.046875 C 19.671875 -10.316406 17.3125 -8.757812 14.84375 -7.375 C 12.382812 -5.988281 9.894531 -4.65625 7.375 -3.375 C 7.238281 -3.289062 7.003906 -3.179688 6.671875 -3.046875 C 6.335938 -2.921875 5.976562 -2.800781 5.59375 -2.6875 C 5.207031 -2.570312 4.835938 -2.460938 4.484375 -2.359375 C 4.128906 -2.253906 3.863281 -2.203125 3.6875 -2.203125 C 3.039062 -2.222656 2.484375 -2.390625 2.015625 -2.703125 C 1.566406 -2.992188 1.171875 -3.332031 0.828125 -3.71875 C 0.484375 -4.101562 0.148438 -4.492188 -0.171875 -4.890625 C -1.585938 -6.640625 -2.859375 -8.457031 -3.984375 -10.34375 C -5.109375 -12.238281 -6.222656 -14.148438 -7.328125 -16.078125 C -8.234375 -17.753906 -9.128906 -19.410156 -10.015625 -21.046875 C -10.898438 -22.679688 -11.6875 -24.390625 -12.375 -26.171875 C -12.71875 -27.054688 -13.035156 -27.945312 -13.328125 -28.84375 C -13.617188 -29.75 -13.859375 -30.671875 -14.046875 -31.609375 C -14.171875 -32.359375 -14.304688 -33.109375 -14.453125 -33.859375 C -14.609375 -34.617188 -14.691406 -35.378906 -14.703125 -36.140625 C -14.679688 -37.054688 -14.554688 -37.972656 -14.328125 -38.890625 C -14.109375 -39.804688 -13.769531 -40.648438 -13.3125 -41.421875 C -12.570312 -42.691406 -11.671875 -43.859375 -10.609375 -44.921875 C -9.546875 -45.984375 -8.40625 -46.941406 -7.1875 -47.796875 C -6.34375 -48.453125 -5.46875 -49.050781 -4.5625 -49.59375 C -3.65625 -50.132812 -2.722656 -50.640625 -1.765625 -51.109375 C -0.847656 -51.566406 0.09375 -51.9375 1.0625 -52.21875 C 2.03125 -52.507812 3.007812 -52.625 4 -52.5625 C 5.09375 -52.5 6.175781 -52.25 7.25 -51.8125 C 8.332031 -51.382812 9.28125 -50.789062 10.09375 -50.03125 C 11.25 -49.082031 12.160156 -47.914062 12.828125 -46.53125 C 13.503906 -45.144531 13.859375 -43.6875 13.890625 -42.15625 C 13.890625 -40.5625 13.703125 -39.082031 13.328125 -37.71875 C 13.117188 -37 12.84375 -36.289062 12.5 -35.59375 C 12.164062 -34.894531 11.816406 -34.207031 11.453125 -33.53125 C 12.097656 -33.726562 12.742188 -33.835938 13.390625 -33.859375 C 14.046875 -33.890625 14.703125 -33.890625 15.359375 -33.859375 C 16.835938 -33.835938 18.273438 -33.507812 19.671875 -32.875 C 21.066406 -32.25 22.320312 -31.421875 23.4375 -30.390625 C 24.550781 -29.367188 25.484375 -28.191406 26.234375 -26.859375 C 26.984375 -25.535156 27.453125 -24.128906 27.640625 -22.640625 C 27.867188 -20.816406 27.546875 -19.066406 26.671875 -17.390625 C 26.097656 -16.359375 25.394531 -15.394531 24.5625 -14.5 C 23.738281 -13.601562 22.859375 -12.785156 21.921875 -12.046875 Z M 0.484375 -31.578125 C 0.597656 -31.640625 0.757812 -31.742188 0.96875 -31.890625 C 1.175781 -32.035156 1.378906 -32.1875 1.578125 -32.34375 C 1.773438 -32.507812 1.960938 -32.671875 2.140625 -32.828125 C 2.328125 -32.984375 2.46875 -33.09375 2.5625 -33.15625 C 2.84375 -33.457031 3.125 -33.804688 3.40625 -34.203125 C 3.695312 -34.609375 3.945312 -35.035156 4.15625 -35.484375 C 4.363281 -35.929688 4.503906 -36.378906 4.578125 -36.828125 C 4.648438 -37.273438 4.585938 -37.671875 4.390625 -38.015625 C 4.109375 -38.566406 3.664062 -38.90625 3.0625 -39.03125 C 2.46875 -39.15625 1.882812 -39.09375 1.3125 -38.84375 C 1.132812 -38.738281 0.90625 -38.59375 0.625 -38.40625 C 0.351562 -38.21875 0.0820312 -38.007812 -0.1875 -37.78125 C -0.46875 -37.550781 -0.710938 -37.328125 -0.921875 -37.109375 C -1.128906 -36.890625 -1.269531 -36.6875 -1.34375 -36.5 C -1.5 -36.144531 -1.546875 -35.742188 -1.484375 -35.296875 C -1.421875 -34.859375 -1.328125 -34.445312 -1.203125 -34.0625 C -1.148438 -33.90625 -1.046875 -33.703125 -0.890625 -33.453125 C -0.742188 -33.203125 -0.59375 -32.945312 -0.4375 -32.6875 C -0.289062 -32.4375 -0.132812 -32.203125 0.03125 -31.984375 C 0.207031 -31.773438 0.359375 -31.640625 0.484375 -31.578125 Z M 7.9375 -17.609375 C 8.132812 -17.492188 8.421875 -17.523438 8.796875 -17.703125 C 9.171875 -17.878906 9.453125 -18.023438 9.640625 -18.140625 C 10.085938 -18.398438 10.5625 -18.71875 11.0625 -19.09375 C 11.570312 -19.46875 12.015625 -19.878906 12.390625 -20.328125 C 12.765625 -20.773438 13.054688 -21.242188 13.265625 -21.734375 C 13.484375 -22.222656 13.507812 -22.71875 13.34375 -23.21875 C 13.1875 -23.757812 12.796875 -24.21875 12.171875 -24.59375 C 11.546875 -24.976562 10.941406 -25.160156 10.359375 -25.140625 C 10.003906 -25.117188 9.585938 -25.066406 9.109375 -24.984375 C 8.628906 -24.898438 8.148438 -24.757812 7.671875 -24.5625 C 7.191406 -24.375 6.753906 -24.148438 6.359375 -23.890625 C 5.972656 -23.640625 5.695312 -23.375 5.53125 -23.09375 C 5.207031 -22.476562 5.203125 -21.832031 5.515625 -21.15625 C 5.617188 -20.945312 5.765625 -20.660156 5.953125 -20.296875 C 6.140625 -19.929688 6.34375 -19.5625 6.5625 -19.1875 C 6.789062 -18.820312 7.023438 -18.488281 7.265625 -18.1875 C 7.503906 -17.894531 7.726562 -17.703125 7.9375 -17.609375 Z M 7.9375 -17.609375 "/></g></g></g><g fill="#000000" fill-opacity="1"><g transform="translate(230.718576, 244.32144)"><g><path d="M 19.109375 -21.265625 C 18.179688 -20.085938 17.066406 -19.1875 15.765625 -18.5625 C 14.953125 -18.101562 14.117188 -17.921875 13.265625 -18.015625 C 12.359375 -18.054688 11.523438 -18.351562 10.765625 -18.90625 C 10.003906 -19.457031 9.269531 -20.015625 8.5625 -20.578125 C 7.882812 -19.972656 7.226562 -19.335938 6.59375 -18.671875 C 5.96875 -18.015625 5.375 -17.328125 4.8125 -16.609375 C 5.34375 -16.085938 5.878906 -15.566406 6.421875 -15.046875 C 6.960938 -14.535156 7.382812 -13.941406 7.6875 -13.265625 C 7.882812 -12.660156 7.972656 -12.019531 7.953125 -11.34375 C 7.941406 -10.664062 7.828125 -10.023438 7.609375 -9.421875 C 7.265625 -8.484375 6.765625 -7.625 6.109375 -6.84375 C 5.453125 -6.0625 4.71875 -5.421875 3.90625 -4.921875 C 3.101562 -4.429688 2.242188 -4.101562 1.328125 -3.9375 C 0.410156 -3.78125 -0.519531 -3.875 -1.46875 -4.21875 C -3.238281 -4.882812 -4.816406 -5.863281 -6.203125 -7.15625 C -7.585938 -8.457031 -8.945312 -9.785156 -10.28125 -11.140625 C -11.800781 -12.722656 -13.328125 -14.289062 -14.859375 -15.84375 C -16.390625 -17.40625 -17.800781 -19.085938 -19.09375 -20.890625 C -20.363281 -22.660156 -21.441406 -24.59375 -22.328125 -26.6875 C -23.210938 -28.78125 -23.613281 -30.921875 -23.53125 -33.109375 C -23.488281 -34.367188 -23.253906 -35.617188 -22.828125 -36.859375 C -22.398438 -38.097656 -21.847656 -39.253906 -21.171875 -40.328125 C -19.847656 -42.410156 -18.179688 -44.15625 -16.171875 -45.5625 C -14.816406 -46.414062 -13.269531 -47.003906 -11.53125 -47.328125 C -10.070312 -47.578125 -8.609375 -47.617188 -7.140625 -47.453125 C -5.671875 -47.296875 -4.238281 -47 -2.84375 -46.5625 C -1.3125 -46.070312 0.164062 -45.421875 1.59375 -44.609375 C 3.03125 -43.804688 4.425781 -42.929688 5.78125 -41.984375 C 8.007812 -40.304688 10.179688 -38.59375 12.296875 -36.84375 C 14.410156 -35.09375 16.398438 -33.203125 18.265625 -31.171875 C 18.867188 -30.484375 19.457031 -29.738281 20.03125 -28.9375 C 20.601562 -28.132812 20.9375 -27.28125 21.03125 -26.375 C 21.101562 -25.425781 20.941406 -24.515625 20.546875 -23.640625 C 20.148438 -22.765625 19.671875 -21.972656 19.109375 -21.265625 Z M -7.015625 -27.859375 C -6.078125 -26.785156 -5.109375 -25.726562 -4.109375 -24.6875 C -3.117188 -23.644531 -2.078125 -22.648438 -0.984375 -21.703125 C -0.453125 -22.484375 0.109375 -23.265625 0.703125 -24.046875 C 1.296875 -24.828125 1.960938 -25.523438 2.703125 -26.140625 C 1.328125 -27.421875 -0.0195312 -28.6875 -1.34375 -29.9375 C -2.675781 -31.1875 -4.085938 -32.382812 -5.578125 -33.53125 C -6.023438 -33.863281 -6.492188 -34.132812 -6.984375 -34.34375 C -7.472656 -34.5625 -7.984375 -34.695312 -8.515625 -34.75 C -8.765625 -34.75 -9.003906 -34.71875 -9.234375 -34.65625 C -9.460938 -34.601562 -9.65625 -34.488281 -9.8125 -34.3125 C -10.207031 -33.925781 -10.320312 -33.390625 -10.15625 -32.703125 C -9.988281 -32.023438 -9.75 -31.445312 -9.4375 -30.96875 C -9.101562 -30.414062 -8.726562 -29.878906 -8.3125 -29.359375 C -7.90625 -28.847656 -7.472656 -28.347656 -7.015625 -27.859375 Z M -7.015625 -27.859375 "/></g></g></g><g fill="#000000" fill-opacity="1"><g transform="translate(258.122086, 211.115308)"><g><path d="M 9.546875 -20.671875 C 9.304688 -19.492188 8.910156 -18.351562 8.359375 -17.25 C 7.804688 -16.144531 7.140625 -15.140625 6.359375 -14.234375 C 5.171875 -12.816406 3.796875 -11.585938 2.234375 -10.546875 C 0.679688 -9.503906 -0.960938 -8.738281 -2.703125 -8.25 C -4.847656 -7.664062 -7.085938 -7.390625 -9.421875 -7.421875 C -11.753906 -7.460938 -14.003906 -7.789062 -16.171875 -8.40625 C -18.335938 -9.03125 -20.441406 -9.835938 -22.484375 -10.828125 C -24.535156 -11.828125 -26.351562 -13.128906 -27.9375 -14.734375 C -29.007812 -15.785156 -30.015625 -16.9375 -30.953125 -18.1875 C -31.890625 -19.445312 -32.609375 -20.800781 -33.109375 -22.25 C -33.460938 -23.125 -33.6875 -24.046875 -33.78125 -25.015625 C -33.875 -25.984375 -33.890625 -26.945312 -33.828125 -27.90625 C -33.648438 -30.351562 -33.085938 -32.769531 -32.140625 -35.15625 C -31.191406 -37.539062 -29.894531 -39.664062 -28.25 -41.53125 C -27.582031 -42.257812 -26.828125 -42.925781 -25.984375 -43.53125 C -25.140625 -44.132812 -24.207031 -44.515625 -23.1875 -44.671875 C -22.28125 -44.804688 -21.40625 -44.742188 -20.5625 -44.484375 C -19.71875 -44.234375 -18.9375 -43.835938 -18.21875 -43.296875 C -17.507812 -42.765625 -16.894531 -42.109375 -16.375 -41.328125 C -15.851562 -40.554688 -15.5 -39.726562 -15.3125 -38.84375 C -15.1875 -38.238281 -15.140625 -37.617188 -15.171875 -36.984375 C -15.210938 -36.359375 -15.367188 -35.769531 -15.640625 -35.21875 C -16.160156 -34.195312 -16.84375 -33.269531 -17.6875 -32.4375 C -18.53125 -31.613281 -19.203125 -30.664062 -19.703125 -29.59375 C -20.234375 -28.539062 -20.425781 -27.472656 -20.28125 -26.390625 C -20.144531 -25.304688 -19.71875 -24.3125 -19 -23.40625 C -18.46875 -22.757812 -17.828125 -22.210938 -17.078125 -21.765625 C -16.328125 -21.316406 -15.550781 -20.941406 -14.75 -20.640625 C -14.039062 -20.390625 -13.195312 -20.160156 -12.21875 -19.953125 C -11.238281 -19.742188 -10.234375 -19.625 -9.203125 -19.59375 C -8.179688 -19.570312 -7.210938 -19.648438 -6.296875 -19.828125 C -5.390625 -20.015625 -4.675781 -20.378906 -4.15625 -20.921875 C -3.65625 -21.390625 -3.34375 -21.910156 -3.21875 -22.484375 C -3.101562 -23.066406 -3.125 -23.644531 -3.28125 -24.21875 C -3.445312 -24.789062 -3.738281 -25.335938 -4.15625 -25.859375 C -4.582031 -26.378906 -5.082031 -26.804688 -5.65625 -27.140625 C -5.738281 -26.960938 -5.847656 -26.65625 -5.984375 -26.21875 C -6.128906 -25.78125 -6.285156 -25.332031 -6.453125 -24.875 C -6.628906 -24.414062 -6.800781 -23.976562 -6.96875 -23.5625 C -7.144531 -23.15625 -7.316406 -22.875 -7.484375 -22.71875 C -7.753906 -22.375 -8.132812 -22.203125 -8.625 -22.203125 C -9.125 -22.203125 -9.585938 -22.242188 -10.015625 -22.328125 C -10.273438 -22.398438 -10.617188 -22.535156 -11.046875 -22.734375 C -11.472656 -22.941406 -11.90625 -23.179688 -12.34375 -23.453125 C -12.789062 -23.722656 -13.1875 -23.992188 -13.53125 -24.265625 C -13.875 -24.546875 -14.113281 -24.828125 -14.25 -25.109375 C -14.53125 -25.554688 -14.613281 -26.140625 -14.5 -26.859375 C -14.382812 -27.578125 -14.1875 -28.320312 -13.90625 -29.09375 C -13.625 -29.863281 -13.289062 -30.613281 -12.90625 -31.34375 C -12.53125 -32.082031 -12.222656 -32.695312 -11.984375 -33.1875 C -11.578125 -33.914062 -11.148438 -34.625 -10.703125 -35.3125 C -10.265625 -36.007812 -9.734375 -36.648438 -9.109375 -37.234375 C -8.765625 -37.535156 -8.34375 -37.816406 -7.84375 -38.078125 C -7.34375 -38.347656 -6.847656 -38.507812 -6.359375 -38.5625 C -5.492188 -38.613281 -4.625 -38.5625 -3.75 -38.40625 C -2.882812 -38.25 -2.019531 -38.023438 -1.15625 -37.734375 C 0.738281 -37.097656 2.5 -36.179688 4.125 -34.984375 C 5.363281 -33.992188 6.441406 -32.820312 7.359375 -31.46875 C 8.285156 -30.125 8.953125 -28.679688 9.359375 -27.140625 C 9.628906 -26.085938 9.785156 -25.007812 9.828125 -23.90625 C 9.867188 -22.800781 9.773438 -21.722656 9.546875 -20.671875 Z M 9.546875 -20.671875 "/></g></g></g><g fill="#000000" fill-opacity="1"><g transform="translate(273.241038, 173.158563)"><g><path d="M 2.859375 -22.359375 C 2.890625 -21.160156 2.863281 -19.972656 2.78125 -18.796875 C 2.695312 -17.628906 2.550781 -16.441406 2.34375 -15.234375 C 2.15625 -13.878906 1.835938 -12.515625 1.390625 -11.140625 C 0.953125 -9.773438 0.285156 -8.566406 -0.609375 -7.515625 C -1.335938 -6.691406 -2.207031 -6.035156 -3.21875 -5.546875 C -4.238281 -5.066406 -5.273438 -4.707031 -6.328125 -4.46875 C -7.753906 -4.101562 -9.207031 -3.867188 -10.6875 -3.765625 C -12.175781 -3.671875 -13.664062 -3.625 -15.15625 -3.625 C -17.28125 -3.65625 -19.394531 -3.789062 -21.5 -4.03125 C -23.613281 -4.28125 -25.710938 -4.59375 -27.796875 -4.96875 C -30.003906 -5.40625 -32.160156 -5.984375 -34.265625 -6.703125 C -36.367188 -7.421875 -38.296875 -8.488281 -40.046875 -9.90625 C -40.566406 -10.269531 -41.039062 -10.707031 -41.46875 -11.21875 C -41.90625 -11.738281 -42.207031 -12.300781 -42.375 -12.90625 C -42.46875 -13.28125 -42.46875 -13.875 -42.375 -14.6875 C -42.289062 -15.507812 -42.140625 -16.453125 -41.921875 -17.515625 C -41.710938 -18.578125 -41.472656 -19.703125 -41.203125 -20.890625 C -40.929688 -22.085938 -40.691406 -23.226562 -40.484375 -24.3125 C -40.285156 -25.394531 -40.109375 -26.347656 -39.953125 -27.171875 C -39.804688 -28.003906 -39.773438 -28.601562 -39.859375 -28.96875 C -39.921875 -29.488281 -39.96875 -30.015625 -40 -30.546875 C -40.039062 -31.085938 -40.03125 -31.632812 -39.96875 -32.1875 C -39.894531 -32.53125 -39.789062 -32.859375 -39.65625 -33.171875 C -39.53125 -33.492188 -39.351562 -33.804688 -39.125 -34.109375 C -38.6875 -34.578125 -38.128906 -34.929688 -37.453125 -35.171875 C -36.773438 -35.421875 -36.046875 -35.5625 -35.265625 -35.59375 C -34.492188 -35.625 -33.734375 -35.550781 -32.984375 -35.375 C -32.234375 -35.195312 -31.578125 -34.957031 -31.015625 -34.65625 C -30.492188 -34.40625 -30.015625 -34.054688 -29.578125 -33.609375 C -29.148438 -33.171875 -28.8125 -32.707031 -28.5625 -32.21875 C -28.207031 -31.507812 -28 -30.765625 -27.9375 -29.984375 C -27.882812 -29.210938 -27.914062 -28.4375 -28.03125 -27.65625 C -28.226562 -26.613281 -28.5 -25.578125 -28.84375 -24.546875 C -29.195312 -23.523438 -29.523438 -22.472656 -29.828125 -21.390625 C -30.003906 -20.867188 -30.117188 -20.351562 -30.171875 -19.84375 C -30.148438 -19.363281 -29.957031 -18.960938 -29.59375 -18.640625 C -29.226562 -18.378906 -28.8125 -18.191406 -28.34375 -18.078125 C -27.882812 -17.972656 -27.453125 -18 -27.046875 -18.15625 C -26.648438 -18.21875 -26.375 -18.398438 -26.21875 -18.703125 C -26.03125 -18.960938 -25.894531 -19.410156 -25.8125 -20.046875 C -25.726562 -20.691406 -25.65625 -21.367188 -25.59375 -22.078125 C -25.53125 -22.785156 -25.492188 -23.472656 -25.484375 -24.140625 C -25.484375 -24.804688 -25.476562 -25.296875 -25.46875 -25.609375 C -25.5 -26.148438 -25.492188 -26.6875 -25.453125 -27.21875 C -25.421875 -27.757812 -25.3125 -28.296875 -25.125 -28.828125 C -24.925781 -29.660156 -24.445312 -30.296875 -23.6875 -30.734375 C -23.144531 -31.035156 -22.515625 -31.207031 -21.796875 -31.25 C -21.085938 -31.300781 -20.359375 -31.234375 -19.609375 -31.046875 C -18.859375 -30.867188 -18.144531 -30.625 -17.46875 -30.3125 C -16.789062 -30.007812 -16.21875 -29.648438 -15.75 -29.234375 C -15.320312 -28.835938 -15.046875 -28.296875 -14.921875 -27.609375 C -14.796875 -26.929688 -14.753906 -26.191406 -14.796875 -25.390625 C -14.835938 -24.585938 -14.945312 -23.800781 -15.125 -23.03125 C -15.3125 -22.257812 -15.492188 -21.585938 -15.671875 -21.015625 C -15.734375 -20.816406 -15.851562 -20.507812 -16.03125 -20.09375 C -16.21875 -19.6875 -16.394531 -19.242188 -16.5625 -18.765625 C -16.726562 -18.296875 -16.882812 -17.84375 -17.03125 -17.40625 C -17.175781 -16.976562 -17.257812 -16.664062 -17.28125 -16.46875 C -17.257812 -16.257812 -17.15625 -16.125 -16.96875 -16.0625 C -16.78125 -16 -16.585938 -15.957031 -16.390625 -15.9375 C -15.546875 -15.726562 -14.640625 -15.703125 -13.671875 -15.859375 C -12.710938 -16.015625 -11.941406 -16.394531 -11.359375 -17 C -10.710938 -17.6875 -10.3125 -18.519531 -10.15625 -19.5 C -10.007812 -20.488281 -10.023438 -21.445312 -10.203125 -22.375 C -10.335938 -23.300781 -10.507812 -24.195312 -10.71875 -25.0625 C -10.925781 -25.925781 -11.0625 -26.816406 -11.125 -27.734375 C -11.144531 -28.253906 -11.132812 -28.769531 -11.09375 -29.28125 C -11.0625 -29.789062 -10.925781 -30.242188 -10.6875 -30.640625 C -10.40625 -31.085938 -10.03125 -31.445312 -9.5625 -31.71875 C -8.65625 -32.21875 -7.671875 -32.59375 -6.609375 -32.84375 C -5.554688 -33.101562 -4.503906 -33.160156 -3.453125 -33.015625 C -2.085938 -32.785156 -0.90625 -32.203125 0.09375 -31.265625 C 1.09375 -30.335938 1.796875 -29.222656 2.203125 -27.921875 C 2.460938 -26.984375 2.628906 -26.046875 2.703125 -25.109375 C 2.785156 -24.171875 2.835938 -23.253906 2.859375 -22.359375 Z M 2.859375 -22.359375 "/></g></g></g><g fill="#000000" fill-opacity="1"><g transform="translate(276.35938, 135.002225)"><g><path d="M -2.78125 -23.96875 C -2.25 -21.914062 -1.804688 -19.832031 -1.453125 -17.71875 C -1.097656 -15.613281 -0.785156 -13.507812 -0.515625 -11.40625 C -0.492188 -11.25 -0.460938 -10.925781 -0.421875 -10.4375 C -0.390625 -9.945312 -0.335938 -9.429688 -0.265625 -8.890625 C -0.191406 -8.347656 -0.132812 -7.832031 -0.09375 -7.34375 C -0.0625 -6.851562 -0.0351562 -6.53125 -0.015625 -6.375 C -0.0234375 -5.925781 -0.0351562 -5.476562 -0.046875 -5.03125 C -0.0546875 -4.582031 -0.113281 -4.125 -0.21875 -3.65625 C -0.332031 -3.394531 -0.460938 -3.144531 -0.609375 -2.90625 C -0.753906 -2.664062 -0.925781 -2.445312 -1.125 -2.25 C -1.625 -1.789062 -2.234375 -1.476562 -2.953125 -1.3125 C -3.679688 -1.15625 -4.398438 -1.0625 -5.109375 -1.03125 C -6.648438 -0.976562 -8.191406 -0.9375 -9.734375 -0.90625 C -11.273438 -0.875 -12.816406 -0.816406 -14.359375 -0.734375 C -17.703125 -0.503906 -21.007812 -0.15625 -24.28125 0.3125 C -27.5625 0.78125 -30.8125 1.484375 -34.03125 2.421875 C -34.144531 2.441406 -34.398438 2.523438 -34.796875 2.671875 C -35.191406 2.816406 -35.609375 2.960938 -36.046875 3.109375 C -36.484375 3.265625 -36.894531 3.410156 -37.28125 3.546875 C -37.675781 3.691406 -37.929688 3.773438 -38.046875 3.796875 C -38.585938 3.921875 -39.148438 3.960938 -39.734375 3.921875 C -40.316406 3.878906 -40.84375 3.738281 -41.3125 3.5 C -41.976562 3.113281 -42.507812 2.515625 -42.90625 1.703125 C -43.3125 0.898438 -43.625 0.015625 -43.84375 -0.953125 C -44.070312 -1.929688 -44.210938 -2.921875 -44.265625 -3.921875 C -44.328125 -4.929688 -44.316406 -5.800781 -44.234375 -6.53125 C -44.203125 -6.851562 -44.15625 -7.171875 -44.09375 -7.484375 C -44.03125 -7.796875 -43.921875 -8.101562 -43.765625 -8.40625 C -43.554688 -8.863281 -43.25 -9.25 -42.84375 -9.5625 C -42.4375 -9.882812 -42.015625 -10.164062 -41.578125 -10.40625 C -39.710938 -11.375 -37.734375 -12.035156 -35.640625 -12.390625 C -33.554688 -12.753906 -31.453125 -13.007812 -29.328125 -13.15625 C -27.128906 -13.300781 -24.929688 -13.382812 -22.734375 -13.40625 C -20.535156 -13.425781 -18.347656 -13.332031 -16.171875 -13.125 C -15.628906 -13.0625 -15.109375 -12.988281 -14.609375 -12.90625 C -14.109375 -12.832031 -13.578125 -12.796875 -13.015625 -12.796875 C -13.078125 -13.941406 -13.222656 -15.09375 -13.453125 -16.25 C -13.679688 -17.40625 -13.921875 -18.535156 -14.171875 -19.640625 C -14.328125 -20.378906 -14.492188 -21.109375 -14.671875 -21.828125 C -14.847656 -22.554688 -14.9375 -23.296875 -14.9375 -24.046875 C -14.957031 -24.597656 -14.832031 -25.054688 -14.5625 -25.421875 C -14.28125 -25.816406 -13.828125 -26.164062 -13.203125 -26.46875 C -12.597656 -26.726562 -11.890625 -26.984375 -11.078125 -27.234375 C -10.273438 -27.484375 -9.453125 -27.644531 -8.609375 -27.71875 C -7.765625 -27.789062 -6.957031 -27.769531 -6.1875 -27.65625 C -5.414062 -27.539062 -4.789062 -27.265625 -4.3125 -26.828125 C -3.9375 -26.453125 -3.628906 -26.015625 -3.390625 -25.515625 C -3.148438 -25.023438 -2.945312 -24.507812 -2.78125 -23.96875 Z M -2.78125 -23.96875 "/></g></g></g><g fill="#000000" fill-opacity="1"><g transform="translate(270.807271, 101.923924)"><g><path d="M -13.140625 -25.46875 C -11.515625 -24.675781 -10.035156 -23.582031 -8.703125 -22.1875 C -7.367188 -20.789062 -6.335938 -19.25 -5.609375 -17.5625 C -4.546875 -15.144531 -3.859375 -12.582031 -3.546875 -9.875 C -3.234375 -7.175781 -3.375 -4.550781 -3.96875 -2 C -4.070312 -1.476562 -4.226562 -0.953125 -4.4375 -0.421875 C -4.644531 0.109375 -4.957031 0.578125 -5.375 0.984375 C -5.738281 1.316406 -6.160156 1.570312 -6.640625 1.75 C -7.117188 1.925781 -7.601562 2.046875 -8.09375 2.109375 C -9.882812 2.421875 -11.609375 2.28125 -13.265625 1.6875 C -13.472656 1.625 -13.765625 1.503906 -14.140625 1.328125 C -14.523438 1.160156 -14.898438 0.976562 -15.265625 0.78125 C -15.640625 0.582031 -15.96875 0.363281 -16.25 0.125 C -16.539062 -0.101562 -16.734375 -0.328125 -16.828125 -0.546875 C -16.941406 -0.796875 -16.972656 -1.195312 -16.921875 -1.75 C -16.878906 -2.3125 -16.800781 -2.898438 -16.6875 -3.515625 C -16.582031 -4.128906 -16.472656 -4.710938 -16.359375 -5.265625 C -16.253906 -5.816406 -16.175781 -6.226562 -16.125 -6.5 C -16.007812 -7.375 -15.976562 -8.265625 -16.03125 -9.171875 C -16.082031 -10.078125 -16.328125 -10.921875 -16.765625 -11.703125 C -16.910156 -12.023438 -17.109375 -12.335938 -17.359375 -12.640625 C -17.609375 -12.941406 -17.90625 -13.132812 -18.25 -13.21875 C -18.738281 -13.34375 -19.179688 -13.207031 -19.578125 -12.8125 C -19.984375 -12.414062 -20.289062 -11.972656 -20.5 -11.484375 C -20.664062 -11.097656 -20.785156 -10.703125 -20.859375 -10.296875 C -20.929688 -9.898438 -21.003906 -9.515625 -21.078125 -9.140625 C -21.347656 -6.984375 -21.488281 -4.8125 -21.5 -2.625 C -21.507812 -0.445312 -21.796875 1.675781 -22.359375 3.75 C -22.710938 5.039062 -23.304688 6.226562 -24.140625 7.3125 C -24.972656 8.40625 -25.953125 9.335938 -27.078125 10.109375 C -28.210938 10.890625 -29.4375 11.472656 -30.75 11.859375 C -32.070312 12.253906 -33.390625 12.390625 -34.703125 12.265625 C -35.753906 12.140625 -36.75 11.882812 -37.6875 11.5 C -38.632812 11.113281 -39.539062 10.644531 -40.40625 10.09375 C -41.757812 9.125 -42.953125 7.957031 -43.984375 6.59375 C -45.023438 5.238281 -45.890625 3.816406 -46.578125 2.328125 C -47.398438 0.535156 -48.050781 -1.300781 -48.53125 -3.1875 C -49.007812 -5.082031 -49.257812 -7 -49.28125 -8.9375 C -49.269531 -9.84375 -49.210938 -10.757812 -49.109375 -11.6875 C -49.003906 -12.625 -48.695312 -13.488281 -48.1875 -14.28125 C -47.820312 -14.882812 -47.3125 -15.367188 -46.65625 -15.734375 C -46.007812 -16.097656 -45.347656 -16.347656 -44.671875 -16.484375 C -44.003906 -16.617188 -43.335938 -16.695312 -42.671875 -16.71875 C -42.015625 -16.75 -41.367188 -16.738281 -40.734375 -16.6875 C -40.160156 -16.644531 -39.613281 -16.503906 -39.09375 -16.265625 C -38.582031 -16.035156 -38.109375 -15.734375 -37.671875 -15.359375 C -37.335938 -15.085938 -37.082031 -14.753906 -36.90625 -14.359375 C -36.726562 -13.960938 -36.578125 -13.554688 -36.453125 -13.140625 C -36.222656 -12.046875 -36.175781 -10.925781 -36.3125 -9.78125 C -36.457031 -8.632812 -36.484375 -7.5 -36.390625 -6.375 C -36.347656 -6 -36.285156 -5.625 -36.203125 -5.25 C -36.117188 -4.882812 -35.96875 -4.554688 -35.75 -4.265625 C -35.476562 -3.867188 -35.046875 -3.539062 -34.453125 -3.28125 C -33.859375 -3.019531 -33.332031 -2.953125 -32.875 -3.078125 C -32.445312 -3.179688 -32.101562 -3.441406 -31.84375 -3.859375 C -31.59375 -4.285156 -31.398438 -4.773438 -31.265625 -5.328125 C -31.128906 -5.878906 -31.03125 -6.441406 -30.96875 -7.015625 C -30.90625 -7.597656 -30.847656 -8.109375 -30.796875 -8.546875 C -30.609375 -10.328125 -30.441406 -12.109375 -30.296875 -13.890625 C -30.160156 -15.679688 -29.8125 -17.441406 -29.25 -19.171875 C -28.945312 -20.171875 -28.535156 -21.140625 -28.015625 -22.078125 C -27.492188 -23.015625 -26.828125 -23.816406 -26.015625 -24.484375 C -25.234375 -25.140625 -24.359375 -25.65625 -23.390625 -26.03125 C -22.421875 -26.414062 -21.445312 -26.664062 -20.46875 -26.78125 C -19.25 -26.945312 -18.003906 -26.910156 -16.734375 -26.671875 C -15.460938 -26.441406 -14.265625 -26.039062 -13.140625 -25.46875 Z M -13.140625 -25.46875 "/></g></g></g><g fill="#000000" fill-opacity="1"><g transform="translate(146.938913, 279.866589)"><g><path d="M 24.40625 -5.53125 C 24.175781 -5.289062 23.863281 -5.039062 23.46875 -4.78125 C 23.082031 -4.53125 22.675781 -4.304688 22.25 -4.109375 C 21.832031 -3.910156 21.40625 -3.765625 20.96875 -3.671875 C 20.53125 -3.585938 20.164062 -3.609375 19.875 -3.734375 C 19.675781 -3.785156 19.390625 -3.957031 19.015625 -4.25 C 18.640625 -4.539062 18.257812 -4.859375 17.875 -5.203125 C 17.5 -5.554688 17.132812 -5.890625 16.78125 -6.203125 C 16.425781 -6.515625 16.175781 -6.753906 16.03125 -6.921875 C 15.695312 -6.285156 15.269531 -5.703125 14.75 -5.171875 C 14.238281 -4.640625 13.675781 -4.175781 13.0625 -3.78125 C 12.070312 -3.175781 11.015625 -2.695312 9.890625 -2.34375 C 8.773438 -1.988281 7.640625 -1.828125 6.484375 -1.859375 C 5.253906 -1.878906 4.117188 -2.160156 3.078125 -2.703125 C 2.035156 -3.253906 1.160156 -3.96875 0.453125 -4.84375 C -0.242188 -5.71875 -0.726562 -6.722656 -1 -7.859375 C -1.269531 -9.003906 -1.265625 -10.191406 -0.984375 -11.421875 C -0.859375 -11.859375 -0.703125 -12.273438 -0.515625 -12.671875 C -0.328125 -13.078125 -0.113281 -13.457031 0.125 -13.8125 C 1.101562 -15.25 2.28125 -16.59375 3.65625 -17.84375 C 3.40625 -17.925781 3.179688 -18.023438 2.984375 -18.140625 C 2.796875 -18.253906 2.609375 -18.390625 2.421875 -18.546875 C 1.753906 -19.015625 1.144531 -19.546875 0.59375 -20.140625 C 0.0390625 -20.734375 -0.382812 -21.390625 -0.6875 -22.109375 C -1.332031 -23.554688 -1.367188 -25.023438 -0.796875 -26.515625 C -0.503906 -27.296875 -0.0703125 -28.03125 0.5 -28.71875 C 1.082031 -29.40625 1.707031 -29.992188 2.375 -30.484375 C 3.132812 -31.015625 3.929688 -31.4375 4.765625 -31.75 C 5.597656 -32.070312 6.441406 -32.347656 7.296875 -32.578125 C 8.023438 -32.742188 8.742188 -32.875 9.453125 -32.96875 C 10.171875 -33.0625 10.890625 -33.082031 11.609375 -33.03125 C 12.546875 -33.007812 13.4375 -32.78125 14.28125 -32.34375 C 14.71875 -32.125 15.125 -31.828125 15.5 -31.453125 C 15.875 -31.078125 16.179688 -30.660156 16.421875 -30.203125 C 16.742188 -29.453125 16.820312 -28.675781 16.65625 -27.875 C 16.539062 -27.351562 16.351562 -26.84375 16.09375 -26.34375 C 15.84375 -25.84375 15.5625 -25.363281 15.25 -24.90625 C 14.863281 -24.269531 14.425781 -23.660156 13.9375 -23.078125 C 13.445312 -22.492188 12.957031 -21.914062 12.46875 -21.34375 C 12.59375 -21.226562 12.851562 -21 13.25 -20.65625 C 13.65625 -20.320312 14.082031 -19.96875 14.53125 -19.59375 C 14.988281 -19.21875 15.414062 -18.859375 15.8125 -18.515625 C 16.207031 -18.171875 16.472656 -17.945312 16.609375 -17.84375 C 16.835938 -18.363281 17.023438 -18.890625 17.171875 -19.421875 C 17.328125 -19.953125 17.507812 -20.472656 17.71875 -20.984375 C 17.90625 -21.429688 18.148438 -21.875 18.453125 -22.3125 C 18.765625 -22.757812 19.160156 -23.066406 19.640625 -23.234375 C 19.898438 -23.296875 20.210938 -23.300781 20.578125 -23.25 C 20.941406 -23.195312 21.316406 -23.101562 21.703125 -22.96875 C 22.097656 -22.832031 22.457031 -22.671875 22.78125 -22.484375 C 23.113281 -22.304688 23.390625 -22.132812 23.609375 -21.96875 C 24.078125 -21.582031 24.359375 -21.0625 24.453125 -20.40625 C 24.535156 -19.820312 24.515625 -19.234375 24.390625 -18.640625 C 24.273438 -18.054688 24.117188 -17.492188 23.921875 -16.953125 C 23.578125 -16.085938 23.171875 -15.257812 22.703125 -14.46875 C 22.234375 -13.675781 21.742188 -12.910156 21.234375 -12.171875 C 21.378906 -12.035156 21.644531 -11.8125 22.03125 -11.5 C 22.414062 -11.195312 22.816406 -10.875 23.234375 -10.53125 C 23.648438 -10.1875 24.035156 -9.84375 24.390625 -9.5 C 24.742188 -9.15625 24.972656 -8.898438 25.078125 -8.734375 C 25.378906 -8.285156 25.492188 -7.863281 25.421875 -7.46875 C 25.421875 -7.082031 25.3125 -6.726562 25.09375 -6.40625 C 24.875 -6.082031 24.644531 -5.789062 24.40625 -5.53125 Z M 8.21875 -26.234375 C 8.375 -25.796875 8.59375 -25.410156 8.875 -25.078125 C 9.164062 -24.753906 9.472656 -24.441406 9.796875 -24.140625 C 10.066406 -24.484375 10.28125 -24.875 10.4375 -25.3125 C 10.601562 -25.75 10.640625 -26.160156 10.546875 -26.546875 C 10.421875 -26.898438 10.21875 -27.210938 9.9375 -27.484375 C 9.65625 -27.765625 9.34375 -27.890625 9 -27.859375 C 8.613281 -27.828125 8.351562 -27.632812 8.21875 -27.28125 C 8.082031 -26.925781 8.082031 -26.578125 8.21875 -26.234375 Z M 6.546875 -11.15625 C 6.796875 -10.914062 7.09375 -10.78125 7.4375 -10.75 C 7.78125 -10.71875 8.132812 -10.757812 8.5 -10.875 C 8.875 -10.988281 9.242188 -11.144531 9.609375 -11.34375 C 9.972656 -11.539062 10.289062 -11.753906 10.5625 -11.984375 C 10.46875 -12.097656 10.253906 -12.289062 9.921875 -12.5625 C 9.597656 -12.84375 9.242188 -13.140625 8.859375 -13.453125 C 8.472656 -13.773438 8.109375 -14.070312 7.765625 -14.34375 C 7.421875 -14.613281 7.195312 -14.8125 7.09375 -14.9375 C 6.820312 -14.65625 6.59375 -14.351562 6.40625 -14.03125 C 6.226562 -13.71875 6.097656 -13.382812 6.015625 -13.03125 C 5.929688 -12.675781 5.925781 -12.335938 6 -12.015625 C 6.082031 -11.703125 6.265625 -11.414062 6.546875 -11.15625 Z M 6.546875 -11.15625 "/></g></g></g></svg>